0
SECTION
2
HEADER
9
$INSUNITS
70
4
9
$ACADVER
1
AC1014
9
$HANDSEED
5
FFFF
0
ENDSEC
0
SECTION
2
TABLES
0
TABLE
2
VPORT
5
8
100
AcDbSymbolTable
0
ENDTAB
0
TABLE
2
LTYPE
5
5
100
AcDbSymbolTable
0
LTYPE
5
14
100
AcDbSymbolTableRecord
100
AcDbLinetypeTableRecord
2
BYBLOCK
70
0
0
LTYPE
5
15
100
AcDbSymbolTableRecord
100
AcDbLinetypeTableRecord
2
BYLAYER
70
0
0
ENDTAB
0
TABLE
2
LAYER
5
2
100
AcDbSymbolTable
70
2
0
LAYER
5
50
100
AcDbSymbolTableRecord
100
AcDbLayerTableRecord
2
0
70
0
6
CONTINUOUS
0
ENDTAB
0
TABLE
2
STYLE
5
3
100
AcDbSymbolTable
70
1
0
STYLE
5
11
100
AcDbSymbolTableRecord
100
AcDbTextStyleTableRecord
2
STANDARD
70
0
0
ENDTAB
0
TABLE
2
VIEW
5
6
100
AcDbSymbolTable
70
0
0
ENDTAB
0
TABLE
2
UCS
5
7
100
AcDbSymbolTable
70
0
0
ENDTAB
0
TABLE
2
APPID
5
9
100
AcDbSymbolTable
70
2
0
APPID
5
12
100
AcDbSymbolTableRecord
100
AcDbRegAppTableRecord
2
ACAD
70
0
0
ENDTAB
0
TABLE
2
DIMSTYLE
5
A
100
AcDbSymbolTable
70
1
0
ENDTAB
0
TABLE
2
BLOCK_RECORD
5
1
100
AcDbSymbolTable
70
1
0
BLOCK_RECORD
5
1F
100
AcDbSymbolTableRecord
100
AcDbBlockTableRecord
2
*MODEL_SPACE
0
BLOCK_RECORD
5
1B
100
AcDbSymbolTableRecord
100
AcDbBlockTableRecord
2
*PAPER_SPACE
0
ENDTAB
0
ENDSEC
0
SECTION
2
BLOCKS
0
BLOCK
5
20
100
AcDbEntity
100
AcDbBlockBegin
2
*MODEL_SPACE
0
ENDBLK
5
21
100
AcDbEntity
100
AcDbBlockEnd
0
BLOCK
5
1C
100
AcDbEntity
100
AcDbBlockBegin
2
*PAPER_SPACE
0
ENDBLK
5
1D
100
AcDbEntity
100
AcDbBlockEnd
0
ENDSEC
0
SECTION
2
ENTITIES
0
LWPOLYLINE
5
100
100
AcDbEntity
8
0
100
AcDbPolyline
90
52
70
1
43
0.0
10
-6.0000000000000853
20
20.000000000000053
10
-6.0000000000000853
20
10.000000000000053
10
-3.0000000000000653
20
10.000000000000062
10
-3.0000000000000493
20
-2.9999999999999538
10
9.9999999999999218
20
-2.9999999999999538
10
9.9999999999999201
20
-5.9999999999999432
10
59.999999999999922
20
-5.9999999999999432
10
59.999999999999929
20
-2.9999999999999538
10
109.99999999999993
20
-2.9999999999999538
10
109.99999999999993
20
-5.9999999999999432
10
209.99999999999994
20
-5.9999999999999432
10
209.99999999999994
20
-2.9999999999999538
10
259.99999999999994
20
-2.9999999999999538
10
259.99999999999994
20
-5.9999999999999432
10
309.99999999999994
20
-5.9999999999999432
10
309.99999999999994
20
-2.9999999999999538
10
322.99999999999989
20
-2.9999999999999538
10
322.99999999999989
20
10.000000000000062
10
325.99999999999994
20
10.000000000000053
10
325.99999999999994
20
20.000000000000053
10
322.99999999999989
20
20.000000000000064
10
322.99999999999989
20
30.000000000000064
10
325.99999999999994
20
30.00000000000005
10
325.99999999999994
20
40.000000000000057
10
322.99999999999989
20
40.000000000000057
10
322.99999999999989
20
50.000000000000064
10
325.99999999999994
20
50.000000000000057
10
325.99999999999994
20
60.000000000000057
10
322.99999999999989
20
60.000000000000071
10
322.99999999999989
20
83.000000000000057
10
309.99999999999994
20
83.000000000000043
10
309.99999999999994
20
86.000000000000057
10
259.99999999999994
20
86.000000000000057
10
259.99999999999994
20
83.000000000000057
10
209.99999999999994
20
83.000000000000057
10
209.99999999999994
20
86.000000000000057
10
109.99999999999993
20
86.000000000000057
10
109.99999999999993
20
83.000000000000057
10
59.999999999999922
20
83.000000000000057
10
59.999999999999922
20
86.000000000000057
10
9.9999999999999218
20
86.000000000000057
10
9.9999999999999218
20
83.000000000000057
10
-3.0000000000000782
20
83.000000000000057
10
-3.0000000000000653
20
60.000000000000064
10
-6.0000000000000853
20
60.000000000000057
10
-6.0000000000000853
20
50.000000000000057
10
-3.0000000000000653
20
50.000000000000064
10
-3.0000000000000639
20
40.000000000000057
10
-6.0000000000000853
20
40.000000000000057
10
-6.0000000000000853
20
30.000000000000053
10
-3.0000000000000653
20
30.000000000000064
10
-3.0000000000000653
20
20.000000000000064
0
ENDSEC
0
SECTION
2
OBJECTS
0
DICTIONARY
5
C
100
AcDbDictionary
3
ACAD_GROUP
350
D
3
ACAD_MLINESTYLE
350
17
0
DICTIONARY
5
D
100
AcDbDictionary
0
DICTIONARY
5
1A
330
C
100
AcDbDictionary
0
DICTIONARY
5
17
100
AcDbDictionary
0
ENDSEC
0
EOF
