0
SECTION
2
HEADER
9
$INSUNITS
70
4
9
$ACADVER
1
AC1014
9
$HANDSEED
5
FFFF
0
ENDSEC
0
SECTION
2
TABLES
0
TABLE
2
VPORT
5
8
100
AcDbSymbolTable
0
ENDTAB
0
TABLE
2
LTYPE
5
5
100
AcDbSymbolTable
0
LTYPE
5
14
100
AcDbSymbolTableRecord
100
AcDbLinetypeTableRecord
2
BYBLOCK
70
0
0
LTYPE
5
15
100
AcDbSymbolTableRecord
100
AcDbLinetypeTableRecord
2
BYLAYER
70
0
0
ENDTAB
0
TABLE
2
LAYER
5
2
100
AcDbSymbolTable
70
2
0
LAYER
5
50
100
AcDbSymbolTableRecord
100
AcDbLayerTableRecord
2
0
70
0
6
CONTINUOUS
0
ENDTAB
0
TABLE
2
STYLE
5
3
100
AcDbSymbolTable
70
1
0
STYLE
5
11
100
AcDbSymbolTableRecord
100
AcDbTextStyleTableRecord
2
STANDARD
70
0
0
ENDTAB
0
TABLE
2
VIEW
5
6
100
AcDbSymbolTable
70
0
0
ENDTAB
0
TABLE
2
UCS
5
7
100
AcDbSymbolTable
70
0
0
ENDTAB
0
TABLE
2
APPID
5
9
100
AcDbSymbolTable
70
2
0
APPID
5
12
100
AcDbSymbolTableRecord
100
AcDbRegAppTableRecord
2
ACAD
70
0
0
ENDTAB
0
TABLE
2
DIMSTYLE
5
A
100
AcDbSymbolTable
70
1
0
ENDTAB
0
TABLE
2
BLOCK_RECORD
5
1
100
AcDbSymbolTable
70
1
0
BLOCK_RECORD
5
1F
100
AcDbSymbolTableRecord
100
AcDbBlockTableRecord
2
*MODEL_SPACE
0
BLOCK_RECORD
5
1B
100
AcDbSymbolTableRecord
100
AcDbBlockTableRecord
2
*PAPER_SPACE
0
ENDTAB
0
ENDSEC
0
SECTION
2
BLOCKS
0
BLOCK
5
20
100
AcDbEntity
100
AcDbBlockBegin
2
*MODEL_SPACE
0
ENDBLK
5
21
100
AcDbEntity
100
AcDbBlockEnd
0
BLOCK
5
1C
100
AcDbEntity
100
AcDbBlockBegin
2
*PAPER_SPACE
0
ENDBLK
5
1D
100
AcDbEntity
100
AcDbBlockEnd
0
ENDSEC
0
SECTION
2
ENTITIES
0
LWPOLYLINE
5
100
100
AcDbEntity
8
0
100
AcDbPolyline
90
4
70
1
43
0.0
10
120.00000000000011
20
11.999999999999984
10
120.00000000000009
20
29.999999999999982
10
138.00000000000009
20
29.999999999999982
10
138.00000000000009
20
11.999999999999984
0
LWPOLYLINE
5
101
100
AcDbEntity
8
0
100
AcDbPolyline
90
4
70
1
43
0.0
10
167.50000000000003
20
29.999999999999982
10
167.50000000000003
20
11.999999999999984
10
152.50000000000006
20
11.999999999999984
10
152.50000000000003
20
29.999999999999982
0
LWPOLYLINE
5
102
100
AcDbEntity
8
0
100
AcDbPolyline
90
4
70
1
43
0.0
10
226.99999999999989
20
69.999999999999986
10
244.99999999999986
20
69.999999999999986
10
244.99999999999989
20
51.999999999999986
10
226.99999999999989
20
51.999999999999986
0
LWPOLYLINE
5
103
100
AcDbEntity
8
0
100
AcDbPolyline
90
4
70
1
43
0.0
10
271.99999999999983
20
29.999999999999982
10
289.99999999999983
20
29.999999999999982
10
289.99999999999989
20
11.999999999999984
10
271.99999999999983
20
11.999999999999984
0
LWPOLYLINE
5
104
100
AcDbEntity
8
0
100
AcDbPolyline
90
4
70
1
43
0.0
10
30.000000000000234
20
11.999999999999984
10
30.000000000000217
20
29.999999999999982
10
48.000000000000192
20
29.999999999999982
10
48.000000000000213
20
11.999999999999984
0
LWPOLYLINE
5
105
100
AcDbEntity
8
0
100
AcDbPolyline
90
4
70
1
43
0.0
10
48.000000000000178
20
51.999999999999986
10
30.000000000000195
20
51.999999999999986
10
30.000000000000178
20
69.999999999999986
10
48.000000000000156
20
69.999999999999986
0
LWPOLYLINE
5
106
100
AcDbEntity
8
0
100
AcDbPolyline
90
4
70
1
43
0.0
10
226.99999999999991
20
29.999999999999982
10
244.99999999999989
20
29.999999999999982
10
244.99999999999994
20
11.999999999999984
10
226.99999999999991
20
11.999999999999984
0
LWPOLYLINE
5
107
100
AcDbEntity
8
0
100
AcDbPolyline
90
4
70
1
43
0.0
10
167.5
20
51.999999999999986
10
152.50000000000003
20
51.999999999999986
10
152.49999999999997
20
69.999999999999986
10
167.5
20
69.999999999999986
0
LWPOLYLINE
5
108
100
AcDbEntity
8
0
100
AcDbPolyline
90
4
70
1
43
0.0
10
181.99999999999994
20
69.999999999999986
10
199.99999999999994
20
69.999999999999986
10
199.99999999999997
20
51.999999999999986
10
181.99999999999994
20
51.999999999999986
0
LWPOLYLINE
5
109
100
AcDbEntity
8
0
100
AcDbPolyline
90
4
70
1
43
0.0
10
271.99999999999983
20
69.999999999999986
10
289.99999999999977
20
69.999999999999986
10
289.99999999999983
20
51.999999999999986
10
271.99999999999983
20
51.999999999999986
0
LWPOLYLINE
5
110
100
AcDbEntity
8
0
100
AcDbPolyline
90
4
70
1
43
0.0
10
75.000000000000128
20
51.999999999999986
10
75.000000000000114
20
69.999999999999986
10
93.000000000000085
20
69.999999999999986
10
93.000000000000114
20
51.999999999999986
0
LWPOLYLINE
5
111
100
AcDbEntity
8
0
100
AcDbPolyline
90
4
70
1
43
0.0
10
75.000000000000171
20
11.999999999999984
10
75.000000000000156
20
29.999999999999982
10
93.000000000000128
20
29.999999999999982
10
93.000000000000142
20
11.999999999999984
0
LWPOLYLINE
5
112
100
AcDbEntity
8
0
100
AcDbPolyline
90
4
70
1
43
0.0
10
182
20
29.999999999999982
10
199.99999999999997
20
29.999999999999982
10
200
20
11.999999999999984
10
182
20
11.999999999999984
0
LWPOLYLINE
5
113
100
AcDbEntity
8
0
100
AcDbPolyline
90
4
70
1
43
0.0
10
120.00000000000007
20
51.999999999999986
10
120.00000000000006
20
69.999999999999986
10
138.00000000000003
20
69.999999999999986
10
138.00000000000006
20
51.999999999999986
0
LWPOLYLINE
5
114
100
AcDbEntity
8
0
100
AcDbPolyline
90
60
70
1
43
0.0
10
-5.9999999999997291
20
19.999999999999982
10
-5.9999999999997202
20
9.9999999999999822
10
-2.9999999999997042
20
9.9999999999999911
10
-2.9999999999996763
20
-3.0000000000000249
10
10.000000000000277
20
-3.0000000000000249
10
10.000000000000275
20
-6.0000000000000142
10
60.000000000000206
20
-6.0000000000000142
10
60.000000000000199
20
-1.7763568394002505e-14
10
110.00000000000014
20
-1.7763568394002505e-14
10
110.00000000000011
20
-6.0000000000000142
10
209.99999999999997
20
-6.0000000000000142
10
209.99999999999997
20
-1.7763568394002505e-14
10
259.99999999999989
20
-1.7763568394002505e-14
10
259.99999999999989
20
-6.0000000000000142
10
309.99999999999983
20
-6.0000000000000142
10
309.99999999999977
20
-3.0000000000000249
10
322.99999999999977
20
-3.0000000000000249
10
322.99999999999977
20
9.9999999999999911
10
325.99999999999977
20
9.9999999999999822
10
325.99999999999977
20
19.999999999999982
10
322.99999999999977
20
19.999999999999993
10
322.99999999999977
20
29.999999999999993
10
325.99999999999977
20
29.999999999999982
10
325.99999999999977
20
39.999999999999986
10
322.99999999999966
20
39.999999999999986
10
322.99999999999966
20
49.999999999999993
10
325.99999999999972
20
49.999999999999986
10
325.99999999999972
20
59.999999999999986
10
322.99999999999966
20
59.999999999999993
10
322.99999999999966
20
69.999999999999986
10
325.99999999999972
20
69.999999999999986
10
325.99999999999972
20
79.999999999999986
10
322.99999999999966
20
80
10
322.99999999999966
20
82.999999999999986
10
309.99999999999977
20
82.999999999999972
10
309.99999999999977
20
85.999999999999972
10
259.99999999999983
20
85.999999999999972
10
259.99999999999983
20
79.999999999999986
10
209.99999999999989
20
79.999999999999986
10
209.99999999999994
20
85.999999999999972
10
110.00000000000006
20
85.999999999999972
10
110.00000000000006
20
79.999999999999986
10
60.000000000000128
20
79.999999999999986
10
60.000000000000128
20
85.999999999999972
10
10.000000000000194
20
85.999999999999972
10
10.000000000000197
20
82.999999999999986
10
-2.9999999999997855
20
82.999999999999986
10
-2.99999999999977
20
79.999999999999986
10
-5.9999999999997851
20
79.999999999999986
10
-5.9999999999997762
20
69.999999999999986
10
-2.9999999999997606
20
69.999999999999986
10
-2.9999999999997513
20
59.999999999999993
10
-5.9999999999997664
20
59.999999999999986
10
-5.9999999999997566
20
49.999999999999986
10
-2.9999999999997415
20
49.999999999999993
10
-2.9999999999997309
20
39.999999999999986
10
-5.9999999999997478
20
39.999999999999986
10
-5.9999999999997389
20
29.999999999999982
10
-2.9999999999997229
20
29.999999999999993
10
-2.9999999999997136
20
19.999999999999993
0
ENDSEC
0
SECTION
2
OBJECTS
0
DICTIONARY
5
C
100
AcDbDictionary
3
ACAD_GROUP
350
D
3
ACAD_MLINESTYLE
350
17
0
DICTIONARY
5
D
100
AcDbDictionary
0
DICTIONARY
5
1A
330
C
100
AcDbDictionary
0
DICTIONARY
5
17
100
AcDbDictionary
0
ENDSEC
0
EOF
