0
SECTION
2
HEADER
9
$INSUNITS
70
4
9
$ACADVER
1
AC1014
9
$HANDSEED
5
FFFF
0
ENDSEC
0
SECTION
2
TABLES
0
TABLE
2
VPORT
5
8
100
AcDbSymbolTable
0
ENDTAB
0
TABLE
2
LTYPE
5
5
100
AcDbSymbolTable
0
LTYPE
5
14
100
AcDbSymbolTableRecord
100
AcDbLinetypeTableRecord
2
BYBLOCK
70
0
0
LTYPE
5
15
100
AcDbSymbolTableRecord
100
AcDbLinetypeTableRecord
2
BYLAYER
70
0
0
ENDTAB
0
TABLE
2
LAYER
5
2
100
AcDbSymbolTable
70
2
0
LAYER
5
50
100
AcDbSymbolTableRecord
100
AcDbLayerTableRecord
2
0
70
0
6
CONTINUOUS
0
ENDTAB
0
TABLE
2
STYLE
5
3
100
AcDbSymbolTable
70
1
0
STYLE
5
11
100
AcDbSymbolTableRecord
100
AcDbTextStyleTableRecord
2
STANDARD
70
0
0
ENDTAB
0
TABLE
2
VIEW
5
6
100
AcDbSymbolTable
70
0
0
ENDTAB
0
TABLE
2
UCS
5
7
100
AcDbSymbolTable
70
0
0
ENDTAB
0
TABLE
2
APPID
5
9
100
AcDbSymbolTable
70
2
0
APPID
5
12
100
AcDbSymbolTableRecord
100
AcDbRegAppTableRecord
2
ACAD
70
0
0
ENDTAB
0
TABLE
2
DIMSTYLE
5
A
100
AcDbSymbolTable
70
1
0
ENDTAB
0
TABLE
2
BLOCK_RECORD
5
1
100
AcDbSymbolTable
70
1
0
BLOCK_RECORD
5
1F
100
AcDbSymbolTableRecord
100
AcDbBlockTableRecord
2
*MODEL_SPACE
0
BLOCK_RECORD
5
1B
100
AcDbSymbolTableRecord
100
AcDbBlockTableRecord
2
*PAPER_SPACE
0
ENDTAB
0
ENDSEC
0
SECTION
2
BLOCKS
0
BLOCK
5
20
100
AcDbEntity
100
AcDbBlockBegin
2
*MODEL_SPACE
0
ENDBLK
5
21
100
AcDbEntity
100
AcDbBlockEnd
0
BLOCK
5
1C
100
AcDbEntity
100
AcDbBlockBegin
2
*PAPER_SPACE
0
ENDBLK
5
1D
100
AcDbEntity
100
AcDbBlockEnd
0
ENDSEC
0
SECTION
2
ENTITIES
0
LWPOLYLINE
5
100
100
AcDbEntity
8
0
100
AcDbPolyline
90
4
70
1
43
0.0
10
18.599999999999998
20
71.399999999999977
10
11.400000000000002
20
71.399999999999977
10
11.399999999999999
20
78.599999999999966
10
18.599999999999998
20
78.599999999999966
0
LWPOLYLINE
5
101
100
AcDbEntity
8
0
100
AcDbPolyline
90
4
70
1
43
0.0
10
8.6000000000000014
20
71.399999999999963
10
1.4000000000000008
20
71.399999999999963
10
1.4000000000000001
20
78.599999999999966
10
8.6000000000000014
20
78.599999999999966
0
LWPOLYLINE
5
102
100
AcDbEntity
8
0
100
AcDbPolyline
90
4
70
1
43
0.0
10
38.600000000000001
20
71.399999999999977
10
31.400000000000002
20
71.399999999999977
10
31.400000000000002
20
78.599999999999966
10
38.600000000000001
20
78.599999999999966
0
LWPOLYLINE
5
103
100
AcDbEntity
8
0
100
AcDbPolyline
90
4
70
1
43
0.0
10
28.599999999999998
20
71.399999999999977
10
21.400000000000002
20
71.399999999999977
10
21.400000000000002
20
78.599999999999966
10
28.599999999999998
20
78.599999999999966
0
LWPOLYLINE
5
104
100
AcDbEntity
8
0
100
AcDbPolyline
90
4
70
1
43
0.0
10
48.600000000000001
20
71.399999999999977
10
41.399999999999999
20
71.399999999999977
10
41.399999999999999
20
78.599999999999966
10
48.600000000000001
20
78.599999999999966
0
LWPOLYLINE
5
105
100
AcDbEntity
8
0
100
AcDbPolyline
90
4
70
1
43
0.0
10
78.600000000000009
20
71.399999999999977
10
71.399999999999991
20
71.399999999999977
10
71.399999999999991
20
78.599999999999966
10
78.600000000000009
20
78.599999999999966
0
LWPOLYLINE
5
106
100
AcDbEntity
8
0
100
AcDbPolyline
90
4
70
1
43
0.0
10
58.600000000000001
20
71.399999999999977
10
51.399999999999999
20
71.399999999999977
10
51.399999999999999
20
78.599999999999966
10
58.600000000000001
20
78.599999999999966
0
LWPOLYLINE
5
107
100
AcDbEntity
8
0
100
AcDbPolyline
90
4
70
1
43
0.0
10
88.599999999999994
20
71.399999999999977
10
81.400000000000006
20
71.399999999999977
10
81.400000000000006
20
78.599999999999966
10
88.599999999999994
20
78.599999999999966
0
LWPOLYLINE
5
108
100
AcDbEntity
8
0
100
AcDbPolyline
90
4
70
1
43
0.0
10
68.600000000000009
20
71.399999999999977
10
61.399999999999999
20
71.399999999999977
10
61.399999999999999
20
78.599999999999966
10
68.600000000000009
20
78.599999999999966
0
LWPOLYLINE
5
109
100
AcDbEntity
8
0
100
AcDbPolyline
90
4
70
1
43
0.0
10
128.59999999999999
20
71.399999999999977
10
121.40000000000001
20
71.399999999999977
10
121.40000000000001
20
78.59999999999998
10
128.59999999999999
20
78.599999999999966
0
LWPOLYLINE
5
110
100
AcDbEntity
8
0
100
AcDbPolyline
90
4
70
1
43
0.0
10
148.59999999999999
20
71.399999999999977
10
141.40000000000001
20
71.399999999999977
10
141.40000000000001
20
78.59999999999998
10
148.59999999999999
20
78.59999999999998
0
LWPOLYLINE
5
111
100
AcDbEntity
8
0
100
AcDbPolyline
90
4
70
1
43
0.0
10
118.59999999999999
20
71.399999999999977
10
111.40000000000001
20
71.399999999999977
10
111.40000000000001
20
78.59999999999998
10
118.59999999999999
20
78.599999999999966
0
LWPOLYLINE
5
112
100
AcDbEntity
8
0
100
AcDbPolyline
90
4
70
1
43
0.0
10
168.59999999999999
20
71.399999999999977
10
161.40000000000001
20
71.399999999999977
10
161.40000000000001
20
78.59999999999998
10
168.59999999999999
20
78.59999999999998
0
LWPOLYLINE
5
113
100
AcDbEntity
8
0
100
AcDbPolyline
90
4
70
1
43
0.0
10
138.59999999999999
20
71.399999999999977
10
131.40000000000001
20
71.399999999999977
10
131.40000000000001
20
78.59999999999998
10
138.59999999999999
20
78.599999999999966
0
LWPOLYLINE
5
114
100
AcDbEntity
8
0
100
AcDbPolyline
90
4
70
1
43
0.0
10
98.599999999999994
20
71.399999999999977
10
91.400000000000006
20
71.399999999999977
10
91.400000000000006
20
78.59999999999998
10
98.599999999999994
20
78.599999999999966
0
LWPOLYLINE
5
115
100
AcDbEntity
8
0
100
AcDbPolyline
90
4
70
1
43
0.0
10
108.59999999999999
20
71.399999999999977
10
101.40000000000001
20
71.399999999999977
10
101.40000000000001
20
78.59999999999998
10
108.59999999999999
20
78.599999999999966
0
LWPOLYLINE
5
116
100
AcDbEntity
8
0
100
AcDbPolyline
90
4
70
1
43
0.0
10
78.600000000000009
20
51.39999999999997
10
71.399999999999991
20
51.39999999999997
10
71.399999999999991
20
58.599999999999966
10
78.600000000000009
20
58.599999999999966
0
LWPOLYLINE
5
117
100
AcDbEntity
8
0
100
AcDbPolyline
90
4
70
1
43
0.0
10
158.59999999999999
20
71.399999999999977
10
151.40000000000001
20
71.399999999999977
10
151.40000000000001
20
78.59999999999998
10
158.59999999999999
20
78.59999999999998
0
LWPOLYLINE
5
118
100
AcDbEntity
8
0
100
AcDbPolyline
90
4
70
1
43
0.0
10
178.59999999999999
20
71.399999999999977
10
171.40000000000001
20
71.399999999999977
10
171.40000000000001
20
78.59999999999998
10
178.59999999999999
20
78.59999999999998
0
LWPOLYLINE
5
119
100
AcDbEntity
8
0
100
AcDbPolyline
90
4
70
1
43
0.0
10
48.600000000000001
20
51.39999999999997
10
41.399999999999999
20
51.39999999999997
10
41.399999999999999
20
58.599999999999966
10
48.600000000000001
20
58.599999999999966
0
LWPOLYLINE
5
120
100
AcDbEntity
8
0
100
AcDbPolyline
90
4
70
1
43
0.0
10
68.600000000000009
20
51.39999999999997
10
61.399999999999999
20
51.39999999999997
10
61.399999999999999
20
58.599999999999966
10
68.600000000000009
20
58.599999999999966
0
LWPOLYLINE
5
121
100
AcDbEntity
8
0
100
AcDbPolyline
90
4
70
1
43
0.0
10
298.60000000000002
20
71.399999999999991
10
291.39999999999998
20
71.399999999999991
10
291.39999999999998
20
78.59999999999998
10
298.60000000000002
20
78.59999999999998
0
LWPOLYLINE
5
122
100
AcDbEntity
8
0
100
AcDbPolyline
90
4
70
1
43
0.0
10
58.600000000000001
20
51.39999999999997
10
51.399999999999999
20
51.39999999999997
10
51.399999999999999
20
58.599999999999966
10
58.600000000000001
20
58.599999999999966
0
LWPOLYLINE
5
123
100
AcDbEntity
8
0
100
AcDbPolyline
90
4
70
1
43
0.0
10
38.600000000000001
20
51.39999999999997
10
31.400000000000002
20
51.39999999999997
10
31.400000000000002
20
58.599999999999966
10
38.600000000000001
20
58.599999999999966
0
LWPOLYLINE
5
124
100
AcDbEntity
8
0
100
AcDbPolyline
90
4
70
1
43
0.0
10
28.599999999999998
20
51.39999999999997
10
21.400000000000002
20
51.39999999999997
10
21.400000000000002
20
58.599999999999959
10
28.599999999999998
20
58.599999999999966
0
LWPOLYLINE
5
125
100
AcDbEntity
8
0
100
AcDbPolyline
90
4
70
1
43
0.0
10
98.599999999999994
20
51.39999999999997
10
91.400000000000006
20
51.39999999999997
10
91.400000000000006
20
58.59999999999998
10
98.599999999999994
20
58.599999999999966
0
LWPOLYLINE
5
126
100
AcDbEntity
8
0
100
AcDbPolyline
90
4
70
1
43
0.0
10
288.60000000000002
20
71.399999999999991
10
281.39999999999998
20
71.399999999999991
10
281.39999999999998
20
78.59999999999998
10
288.60000000000002
20
78.59999999999998
0
LWPOLYLINE
5
127
100
AcDbEntity
8
0
100
AcDbPolyline
90
4
70
1
43
0.0
10
18.600000000000001
20
51.39999999999997
10
11.400000000000004
20
51.39999999999997
10
11.400000000000002
20
58.599999999999959
10
18.600000000000001
20
58.599999999999966
0
LWPOLYLINE
5
128
100
AcDbEntity
8
0
100
AcDbPolyline
90
4
70
1
43
0.0
10
88.599999999999994
20
51.39999999999997
10
81.400000000000006
20
51.39999999999997
10
81.400000000000006
20
58.599999999999966
10
88.599999999999994
20
58.599999999999966
0
LWPOLYLINE
5
129
100
AcDbEntity
8
0
100
AcDbPolyline
90
4
70
1
43
0.0
10
108.59999999999999
20
51.39999999999997
10
101.40000000000001
20
51.39999999999997
10
101.40000000000001
20
58.59999999999998
10
108.59999999999999
20
58.599999999999966
0
LWPOLYLINE
5
130
100
AcDbEntity
8
0
100
AcDbPolyline
90
4
70
1
43
0.0
10
298.60000000000002
20
61.399999999999991
10
291.39999999999998
20
61.399999999999991
10
291.39999999999998
20
68.59999999999998
10
298.60000000000002
20
68.59999999999998
0
LWPOLYLINE
5
131
100
AcDbEntity
8
0
100
AcDbPolyline
90
4
70
1
43
0.0
10
278.60000000000002
20
71.399999999999991
10
271.39999999999998
20
71.399999999999991
10
271.39999999999998
20
78.59999999999998
10
278.60000000000002
20
78.59999999999998
0
LWPOLYLINE
5
132
100
AcDbEntity
8
0
100
AcDbPolyline
90
4
70
1
43
0.0
10
118.59999999999999
20
51.39999999999997
10
111.40000000000001
20
51.39999999999997
10
111.40000000000001
20
58.59999999999998
10
118.59999999999999
20
58.599999999999966
0
LWPOLYLINE
5
133
100
AcDbEntity
8
0
100
AcDbPolyline
90
4
70
1
43
0.0
10
268.60000000000002
20
61.399999999999991
10
261.39999999999998
20
61.399999999999991
10
261.39999999999998
20
68.59999999999998
10
268.60000000000002
20
68.59999999999998
0
LWPOLYLINE
5
134
100
AcDbEntity
8
0
100
AcDbPolyline
90
4
70
1
43
0.0
10
288.60000000000002
20
61.399999999999991
10
281.39999999999998
20
61.399999999999991
10
281.39999999999998
20
68.59999999999998
10
288.60000000000002
20
68.59999999999998
0
LWPOLYLINE
5
135
100
AcDbEntity
8
0
100
AcDbPolyline
90
4
70
1
43
0.0
10
278.60000000000002
20
61.399999999999991
10
271.39999999999998
20
61.399999999999991
10
271.39999999999998
20
68.59999999999998
10
278.60000000000002
20
68.59999999999998
0
LWPOLYLINE
5
136
100
AcDbEntity
8
0
100
AcDbPolyline
90
4
70
1
43
0.0
10
248.59999999999999
20
71.399999999999977
10
241.40000000000001
20
71.399999999999977
10
241.40000000000001
20
78.59999999999998
10
248.59999999999999
20
78.59999999999998
0
LWPOLYLINE
5
137
100
AcDbEntity
8
0
100
AcDbPolyline
90
4
70
1
43
0.0
10
208.59999999999999
20
51.399999999999977
10
201.40000000000001
20
51.399999999999977
10
201.40000000000001
20
58.59999999999998
10
208.59999999999999
20
58.599999999999987
0
LWPOLYLINE
5
138
100
AcDbEntity
8
0
100
AcDbPolyline
90
4
70
1
43
0.0
10
158.59999999999999
20
51.399999999999977
10
151.40000000000001
20
51.399999999999977
10
151.40000000000001
20
58.59999999999998
10
158.59999999999999
20
58.59999999999998
0
LWPOLYLINE
5
139
100
AcDbEntity
8
0
100
AcDbPolyline
90
4
70
1
43
0.0
10
208.59999999999999
20
61.399999999999977
10
201.40000000000001
20
61.399999999999977
10
201.40000000000001
20
68.59999999999998
10
208.59999999999999
20
68.59999999999998
0
LWPOLYLINE
5
140
100
AcDbEntity
8
0
100
AcDbPolyline
90
4
70
1
43
0.0
10
178.59999999999999
20
51.399999999999977
10
171.40000000000001
20
51.399999999999977
10
171.40000000000001
20
58.59999999999998
10
178.59999999999999
20
58.59999999999998
0
LWPOLYLINE
5
141
100
AcDbEntity
8
0
100
AcDbPolyline
90
4
70
1
43
0.0
10
198.59999999999999
20
61.399999999999977
10
191.40000000000001
20
61.399999999999977
10
191.40000000000001
20
68.59999999999998
10
198.59999999999999
20
68.59999999999998
0
LWPOLYLINE
5
142
100
AcDbEntity
8
0
100
AcDbPolyline
90
4
70
1
43
0.0
10
268.60000000000002
20
71.399999999999991
10
261.39999999999998
20
71.399999999999991
10
261.39999999999998
20
78.59999999999998
10
268.60000000000002
20
78.59999999999998
0
LWPOLYLINE
5
143
100
AcDbEntity
8
0
100
AcDbPolyline
90
4
70
1
43
0.0
10
128.59999999999999
20
51.39999999999997
10
121.40000000000001
20
51.39999999999997
10
121.40000000000001
20
58.59999999999998
10
128.59999999999999
20
58.599999999999966
0
LWPOLYLINE
5
144
100
AcDbEntity
8
0
100
AcDbPolyline
90
4
70
1
43
0.0
10
138.59999999999999
20
51.39999999999997
10
131.40000000000001
20
51.39999999999997
10
131.40000000000001
20
58.59999999999998
10
138.59999999999999
20
58.599999999999966
0
LWPOLYLINE
5
145
100
AcDbEntity
8
0
100
AcDbPolyline
90
4
70
1
43
0.0
10
188.59999999999999
20
61.399999999999977
10
181.40000000000001
20
61.399999999999977
10
181.40000000000001
20
68.59999999999998
10
188.59999999999999
20
68.59999999999998
0
LWPOLYLINE
5
146
100
AcDbEntity
8
0
100
AcDbPolyline
90
4
70
1
43
0.0
10
228.59999999999999
20
71.399999999999977
10
221.40000000000001
20
71.399999999999977
10
221.40000000000001
20
78.59999999999998
10
228.59999999999999
20
78.59999999999998
0
LWPOLYLINE
5
147
100
AcDbEntity
8
0
100
AcDbPolyline
90
4
70
1
43
0.0
10
158.59999999999999
20
61.399999999999977
10
151.40000000000001
20
61.399999999999977
10
151.40000000000001
20
68.59999999999998
10
158.59999999999999
20
68.59999999999998
0
LWPOLYLINE
5
148
100
AcDbEntity
8
0
100
AcDbPolyline
90
4
70
1
43
0.0
10
188.59999999999999
20
51.399999999999977
10
181.40000000000001
20
51.399999999999977
10
181.40000000000001
20
58.59999999999998
10
188.59999999999999
20
58.59999999999998
0
LWPOLYLINE
5
149
100
AcDbEntity
8
0
100
AcDbPolyline
90
4
70
1
43
0.0
10
168.59999999999999
20
61.399999999999977
10
161.40000000000001
20
61.399999999999977
10
161.40000000000001
20
68.59999999999998
10
168.59999999999999
20
68.59999999999998
0
LWPOLYLINE
5
150
100
AcDbEntity
8
0
100
AcDbPolyline
90
4
70
1
43
0.0
10
168.59999999999999
20
51.399999999999977
10
161.40000000000001
20
51.399999999999977
10
161.40000000000001
20
58.59999999999998
10
168.59999999999999
20
58.59999999999998
0
LWPOLYLINE
5
151
100
AcDbEntity
8
0
100
AcDbPolyline
90
4
70
1
43
0.0
10
258.60000000000002
20
61.399999999999991
10
251.40000000000001
20
61.399999999999991
10
251.40000000000001
20
68.59999999999998
10
258.60000000000002
20
68.59999999999998
0
LWPOLYLINE
5
152
100
AcDbEntity
8
0
100
AcDbPolyline
90
4
70
1
43
0.0
10
238.59999999999999
20
61.399999999999991
10
231.40000000000001
20
61.399999999999991
10
231.40000000000001
20
68.59999999999998
10
238.59999999999999
20
68.59999999999998
0
LWPOLYLINE
5
153
100
AcDbEntity
8
0
100
AcDbPolyline
90
4
70
1
43
0.0
10
198.59999999999999
20
51.399999999999977
10
191.40000000000001
20
51.399999999999977
10
191.40000000000001
20
58.59999999999998
10
198.59999999999999
20
58.59999999999998
0
LWPOLYLINE
5
154
100
AcDbEntity
8
0
100
AcDbPolyline
90
4
70
1
43
0.0
10
218.59999999999999
20
61.399999999999977
10
211.40000000000001
20
61.399999999999977
10
211.40000000000001
20
68.59999999999998
10
218.59999999999999
20
68.59999999999998
0
LWPOLYLINE
5
155
100
AcDbEntity
8
0
100
AcDbPolyline
90
4
70
1
43
0.0
10
228.59999999999999
20
61.399999999999977
10
221.40000000000001
20
61.399999999999977
10
221.40000000000001
20
68.59999999999998
10
228.59999999999999
20
68.59999999999998
0
LWPOLYLINE
5
156
100
AcDbEntity
8
0
100
AcDbPolyline
90
4
70
1
43
0.0
10
118.59999999999999
20
61.39999999999997
10
111.40000000000001
20
61.39999999999997
10
111.40000000000001
20
68.59999999999998
10
118.59999999999999
20
68.599999999999966
0
LWPOLYLINE
5
157
100
AcDbEntity
8
0
100
AcDbPolyline
90
4
70
1
43
0.0
10
148.59999999999999
20
61.399999999999977
10
141.40000000000001
20
61.399999999999977
10
141.40000000000001
20
68.59999999999998
10
148.59999999999999
20
68.59999999999998
0
LWPOLYLINE
5
158
100
AcDbEntity
8
0
100
AcDbPolyline
90
4
70
1
43
0.0
10
258.60000000000002
20
71.399999999999991
10
251.40000000000001
20
71.399999999999991
10
251.40000000000001
20
78.59999999999998
10
258.60000000000002
20
78.59999999999998
0
LWPOLYLINE
5
159
100
AcDbEntity
8
0
100
AcDbPolyline
90
4
70
1
43
0.0
10
218.59999999999999
20
51.399999999999991
10
211.40000000000001
20
51.399999999999991
10
211.40000000000001
20
58.59999999999998
10
218.59999999999999
20
58.599999999999987
0
LWPOLYLINE
5
160
100
AcDbEntity
8
0
100
AcDbPolyline
90
4
70
1
43
0.0
10
238.59999999999999
20
71.399999999999977
10
231.40000000000001
20
71.399999999999977
10
231.40000000000001
20
78.59999999999998
10
238.59999999999999
20
78.59999999999998
0
LWPOLYLINE
5
161
100
AcDbEntity
8
0
100
AcDbPolyline
90
4
70
1
43
0.0
10
148.59999999999999
20
51.39999999999997
10
141.40000000000001
20
51.39999999999997
10
141.40000000000001
20
58.59999999999998
10
148.59999999999999
20
58.59999999999998
0
LWPOLYLINE
5
162
100
AcDbEntity
8
0
100
AcDbPolyline
90
4
70
1
43
0.0
10
8.6000000000000014
20
51.39999999999997
10
1.4000000000000024
20
51.39999999999997
10
1.4000000000000012
20
58.599999999999959
10
8.6000000000000014
20
58.599999999999966
0
LWPOLYLINE
5
163
100
AcDbEntity
8
0
100
AcDbPolyline
90
4
70
1
43
0.0
10
248.59999999999999
20
61.399999999999991
10
241.40000000000001
20
61.399999999999991
10
241.40000000000001
20
68.59999999999998
10
248.59999999999999
20
68.59999999999998
0
LWPOLYLINE
5
164
100
AcDbEntity
8
0
100
AcDbPolyline
90
4
70
1
43
0.0
10
178.59999999999999
20
61.399999999999977
10
171.40000000000001
20
61.399999999999977
10
171.40000000000001
20
68.59999999999998
10
178.59999999999999
20
68.59999999999998
0
LWPOLYLINE
5
165
100
AcDbEntity
8
0
100
AcDbPolyline
90
4
70
1
43
0.0
10
258.60000000000002
20
21.399999999999977
10
251.40000000000001
20
21.399999999999977
10
251.40000000000001
20
28.599999999999987
10
258.60000000000002
20
28.599999999999987
0
LWPOLYLINE
5
166
100
AcDbEntity
8
0
100
AcDbPolyline
90
4
70
1
43
0.0
10
278.60000000000002
20
21.399999999999977
10
271.39999999999998
20
21.399999999999977
10
271.39999999999998
20
28.599999999999987
10
278.60000000000002
20
28.599999999999987
0
LWPOLYLINE
5
167
100
AcDbEntity
8
0
100
AcDbPolyline
90
4
70
1
43
0.0
10
268.60000000000002
20
21.399999999999977
10
261.39999999999998
20
21.399999999999977
10
261.39999999999998
20
28.599999999999987
10
268.60000000000002
20
28.599999999999987
0
LWPOLYLINE
5
168
100
AcDbEntity
8
0
100
AcDbPolyline
90
4
70
1
43
0.0
10
8.600000000000005
20
11.399999999999961
10
1.4000000000000055
20
11.399999999999961
10
1.4000000000000046
20
18.599999999999966
10
8.600000000000005
20
18.599999999999966
0
LWPOLYLINE
5
169
100
AcDbEntity
8
0
100
AcDbPolyline
90
4
70
1
43
0.0
10
298.60000000000002
20
21.399999999999977
10
291.39999999999998
20
21.399999999999977
10
291.39999999999998
20
28.599999999999994
10
298.60000000000002
20
28.599999999999994
0
LWPOLYLINE
5
170
100
AcDbEntity
8
0
100
AcDbPolyline
90
4
70
1
43
0.0
10
248.59999999999999
20
21.399999999999977
10
241.40000000000001
20
21.399999999999977
10
241.40000000000001
20
28.599999999999987
10
248.59999999999999
20
28.599999999999987
0
LWPOLYLINE
5
171
100
AcDbEntity
8
0
100
AcDbPolyline
90
4
70
1
43
0.0
10
288.60000000000002
20
21.399999999999977
10
281.39999999999998
20
21.399999999999977
10
281.39999999999998
20
28.599999999999987
10
288.60000000000002
20
28.599999999999987
0
LWPOLYLINE
5
172
100
AcDbEntity
8
0
100
AcDbPolyline
90
4
70
1
43
0.0
10
168.59999999999999
20
21.39999999999997
10
161.40000000000001
20
21.39999999999997
10
161.40000000000001
20
28.599999999999977
10
168.59999999999999
20
28.599999999999977
0
LWPOLYLINE
5
173
100
AcDbEntity
8
0
100
AcDbPolyline
90
4
70
1
43
0.0
10
238.59999999999999
20
21.399999999999977
10
231.40000000000001
20
21.399999999999977
10
231.40000000000001
20
28.599999999999987
10
238.59999999999999
20
28.599999999999987
0
LWPOLYLINE
5
174
100
AcDbEntity
8
0
100
AcDbPolyline
90
4
70
1
43
0.0
10
198.59999999999999
20
21.399999999999977
10
191.40000000000001
20
21.399999999999977
10
191.40000000000001
20
28.599999999999987
10
198.59999999999999
20
28.599999999999987
0
LWPOLYLINE
5
175
100
AcDbEntity
8
0
100
AcDbPolyline
90
4
70
1
43
0.0
10
108.59999999999999
20
21.39999999999997
10
101.40000000000001
20
21.39999999999997
10
101.40000000000001
20
28.599999999999977
10
108.59999999999999
20
28.599999999999977
0
LWPOLYLINE
5
176
100
AcDbEntity
8
0
100
AcDbPolyline
90
4
70
1
43
0.0
10
311.39999999999998
20
11.399999999999988
10
311.39999999999998
20
18.599999999999994
10
318.60000000000002
20
18.599999999999994
10
318.60000000000002
20
11.399999999999988
0
LWPOLYLINE
5
177
100
AcDbEntity
8
0
100
AcDbPolyline
90
4
70
1
43
0.0
10
311.39999999999998
20
31.399999999999988
10
311.39999999999998
20
38.599999999999994
10
318.60000000000002
20
38.599999999999994
10
318.60000000000002
20
31.399999999999988
0
LWPOLYLINE
5
178
100
AcDbEntity
8
0
100
AcDbPolyline
90
4
70
1
43
0.0
10
148.59999999999999
20
11.39999999999997
10
141.40000000000001
20
11.39999999999997
10
141.40000000000001
20
18.599999999999977
10
148.59999999999999
20
18.599999999999977
0
LWPOLYLINE
5
179
100
AcDbEntity
8
0
100
AcDbPolyline
90
4
70
1
43
0.0
10
218.59999999999999
20
21.399999999999977
10
211.40000000000001
20
21.399999999999977
10
211.40000000000001
20
28.599999999999987
10
218.59999999999999
20
28.599999999999987
0
LWPOLYLINE
5
180
100
AcDbEntity
8
0
100
AcDbPolyline
90
4
70
1
43
0.0
10
158.59999999999999
20
21.39999999999997
10
151.40000000000001
20
21.39999999999997
10
151.40000000000001
20
28.599999999999977
10
158.59999999999999
20
28.599999999999977
0
LWPOLYLINE
5
181
100
AcDbEntity
8
0
100
AcDbPolyline
90
4
70
1
43
0.0
10
178.59999999999999
20
21.39999999999997
10
171.40000000000001
20
21.39999999999997
10
171.40000000000001
20
28.599999999999987
10
178.59999999999999
20
28.599999999999987
0
LWPOLYLINE
5
182
100
AcDbEntity
8
0
100
AcDbPolyline
90
4
70
1
43
0.0
10
208.59999999999999
20
21.399999999999977
10
201.40000000000001
20
21.399999999999977
10
201.40000000000001
20
28.599999999999987
10
208.59999999999999
20
28.599999999999987
0
LWPOLYLINE
5
183
100
AcDbEntity
8
0
100
AcDbPolyline
90
4
70
1
43
0.0
10
301.39999999999998
20
11.399999999999988
10
301.39999999999998
20
18.599999999999994
10
308.60000000000002
20
18.599999999999994
10
308.60000000000002
20
11.399999999999988
0
LWPOLYLINE
5
184
100
AcDbEntity
8
0
100
AcDbPolyline
90
4
70
1
43
0.0
10
228.59999999999999
20
21.399999999999977
10
221.40000000000001
20
21.399999999999977
10
221.40000000000001
20
28.599999999999987
10
228.59999999999999
20
28.599999999999987
0
LWPOLYLINE
5
185
100
AcDbEntity
8
0
100
AcDbPolyline
90
4
70
1
43
0.0
10
128.59999999999999
20
11.39999999999997
10
121.40000000000001
20
11.39999999999997
10
121.40000000000001
20
18.599999999999977
10
128.59999999999999
20
18.599999999999977
0
LWPOLYLINE
5
186
100
AcDbEntity
8
0
100
AcDbPolyline
90
4
70
1
43
0.0
10
138.59999999999999
20
21.39999999999997
10
131.40000000000001
20
21.39999999999997
10
131.40000000000001
20
28.599999999999977
10
138.59999999999999
20
28.599999999999977
0
LWPOLYLINE
5
187
100
AcDbEntity
8
0
100
AcDbPolyline
90
4
70
1
43
0.0
10
188.59999999999999
20
21.399999999999977
10
181.40000000000001
20
21.399999999999977
10
181.40000000000001
20
28.599999999999987
10
188.59999999999999
20
28.599999999999987
0
LWPOLYLINE
5
188
100
AcDbEntity
8
0
100
AcDbPolyline
90
4
70
1
43
0.0
10
98.599999999999994
20
11.39999999999997
10
91.400000000000006
20
11.39999999999997
10
91.400000000000006
20
18.599999999999977
10
98.599999999999994
20
18.599999999999977
0
LWPOLYLINE
5
189
100
AcDbEntity
8
0
100
AcDbPolyline
90
4
70
1
43
0.0
10
148.59999999999999
20
21.39999999999997
10
141.40000000000001
20
21.39999999999997
10
141.40000000000001
20
28.599999999999977
10
148.59999999999999
20
28.599999999999977
0
LWPOLYLINE
5
190
100
AcDbEntity
8
0
100
AcDbPolyline
90
4
70
1
43
0.0
10
128.59999999999999
20
21.39999999999997
10
121.40000000000001
20
21.39999999999997
10
121.40000000000001
20
28.599999999999977
10
128.59999999999999
20
28.599999999999977
0
LWPOLYLINE
5
191
100
AcDbEntity
8
0
100
AcDbPolyline
90
4
70
1
43
0.0
10
118.59999999999999
20
21.39999999999997
10
111.40000000000001
20
21.39999999999997
10
111.40000000000001
20
28.599999999999977
10
118.59999999999999
20
28.599999999999977
0
LWPOLYLINE
5
192
100
AcDbEntity
8
0
100
AcDbPolyline
90
4
70
1
43
0.0
10
301.39999999999998
20
1.3999999999999879
10
301.39999999999998
20
8.5999999999999943
10
308.60000000000002
20
8.5999999999999943
10
308.60000000000002
20
1.3999999999999884
0
LWPOLYLINE
5
193
100
AcDbEntity
8
0
100
AcDbPolyline
90
4
70
1
43
0.0
10
108.59999999999999
20
11.39999999999997
10
101.40000000000001
20
11.39999999999997
10
101.40000000000001
20
18.599999999999977
10
108.59999999999999
20
18.599999999999977
0
LWPOLYLINE
5
194
100
AcDbEntity
8
0
100
AcDbPolyline
90
4
70
1
43
0.0
10
118.59999999999999
20
11.39999999999997
10
111.40000000000001
20
11.39999999999997
10
111.40000000000001
20
18.599999999999977
10
118.59999999999999
20
18.599999999999977
0
LWPOLYLINE
5
195
100
AcDbEntity
8
0
100
AcDbPolyline
90
4
70
1
43
0.0
10
258.60000000000002
20
1.3999999999999795
10
251.40000000000001
20
1.399999999999979
10
251.40000000000001
20
8.5999999999999854
10
258.60000000000002
20
8.5999999999999854
0
LWPOLYLINE
5
196
100
AcDbEntity
8
0
100
AcDbPolyline
90
4
70
1
43
0.0
10
228.59999999999999
20
11.399999999999979
10
221.40000000000001
20
11.399999999999979
10
221.40000000000001
20
18.599999999999987
10
228.59999999999999
20
18.599999999999987
0
LWPOLYLINE
5
197
100
AcDbEntity
8
0
100
AcDbPolyline
90
4
70
1
43
0.0
10
301.39999999999998
20
41.399999999999991
10
301.39999999999998
20
48.599999999999987
10
308.60000000000002
20
48.599999999999987
10
308.60000000000002
20
41.399999999999991
0
LWPOLYLINE
5
198
100
AcDbEntity
8
0
100
AcDbPolyline
90
4
70
1
43
0.0
10
58.600000000000009
20
11.399999999999961
10
51.400000000000006
20
11.399999999999961
10
51.400000000000006
20
18.599999999999966
10
58.600000000000009
20
18.599999999999966
0
LWPOLYLINE
5
199
100
AcDbEntity
8
0
100
AcDbPolyline
90
4
70
1
43
0.0
10
48.600000000000009
20
1.3999999999999617
10
41.400000000000006
20
1.3999999999999613
10
41.400000000000006
20
8.5999999999999677
10
48.600000000000009
20
8.5999999999999677
0
LWPOLYLINE
5
200
100
AcDbEntity
8
0
100
AcDbPolyline
90
4
70
1
43
0.0
10
48.600000000000009
20
11.399999999999961
10
41.400000000000006
20
11.399999999999961
10
41.400000000000006
20
18.599999999999966
10
48.600000000000009
20
18.599999999999966
0
LWPOLYLINE
5
201
100
AcDbEntity
8
0
100
AcDbPolyline
90
4
70
1
43
0.0
10
238.59999999999999
20
11.399999999999979
10
231.40000000000001
20
11.399999999999979
10
231.40000000000001
20
18.599999999999987
10
238.59999999999999
20
18.599999999999987
0
LWPOLYLINE
5
202
100
AcDbEntity
8
0
100
AcDbPolyline
90
4
70
1
43
0.0
10
38.600000000000001
20
1.3999999999999617
10
31.400000000000006
20
1.3999999999999613
10
31.400000000000006
20
8.5999999999999677
10
38.600000000000001
20
8.5999999999999677
0
LWPOLYLINE
5
203
100
AcDbEntity
8
0
100
AcDbPolyline
90
4
70
1
43
0.0
10
198.59999999999999
20
11.399999999999979
10
191.40000000000001
20
11.399999999999979
10
191.40000000000001
20
18.599999999999987
10
198.59999999999999
20
18.599999999999987
0
LWPOLYLINE
5
204
100
AcDbEntity
8
0
100
AcDbPolyline
90
4
70
1
43
0.0
10
18.600000000000005
20
1.3999999999999617
10
11.400000000000007
20
1.3999999999999613
10
11.400000000000004
20
8.5999999999999677
10
18.600000000000005
20
8.5999999999999677
0
LWPOLYLINE
5
205
100
AcDbEntity
8
0
100
AcDbPolyline
90
4
70
1
43
0.0
10
268.60000000000002
20
1.3999999999999795
10
261.39999999999998
20
1.399999999999979
10
261.39999999999998
20
8.5999999999999854
10
268.60000000000002
20
8.5999999999999854
0
LWPOLYLINE
5
206
100
AcDbEntity
8
0
100
AcDbPolyline
90
4
70
1
43
0.0
10
311.39999999999998
20
41.399999999999991
10
311.39999999999998
20
48.599999999999987
10
318.60000000000002
20
48.599999999999987
10
318.60000000000002
20
41.399999999999991
0
LWPOLYLINE
5
207
100
AcDbEntity
8
0
100
AcDbPolyline
90
4
70
1
43
0.0
10
301.39999999999998
20
61.399999999999991
10
301.39999999999998
20
68.59999999999998
10
308.60000000000002
20
68.59999999999998
10
308.60000000000002
20
61.399999999999991
0
LWPOLYLINE
5
208
100
AcDbEntity
8
0
100
AcDbPolyline
90
4
70
1
43
0.0
10
301.39999999999998
20
31.399999999999988
10
301.39999999999998
20
38.599999999999994
10
308.60000000000002
20
38.599999999999994
10
308.60000000000002
20
31.399999999999988
0
LWPOLYLINE
5
209
100
AcDbEntity
8
0
100
AcDbPolyline
90
4
70
1
43
0.0
10
178.59999999999999
20
11.39999999999997
10
171.40000000000001
20
11.39999999999997
10
171.40000000000001
20
18.599999999999987
10
178.59999999999999
20
18.599999999999987
0
LWPOLYLINE
5
210
100
AcDbEntity
8
0
100
AcDbPolyline
90
4
70
1
43
0.0
10
28.600000000000001
20
1.3999999999999617
10
21.400000000000006
20
1.3999999999999613
10
21.400000000000006
20
8.5999999999999677
10
28.600000000000001
20
8.5999999999999677
0
LWPOLYLINE
5
211
100
AcDbEntity
8
0
100
AcDbPolyline
90
4
70
1
43
0.0
10
158.59999999999999
20
11.39999999999997
10
151.40000000000001
20
11.39999999999997
10
151.40000000000001
20
18.599999999999977
10
158.59999999999999
20
18.599999999999977
0
LWPOLYLINE
5
212
100
AcDbEntity
8
0
100
AcDbPolyline
90
4
70
1
43
0.0
10
311.39999999999998
20
61.399999999999991
10
311.39999999999998
20
68.59999999999998
10
318.60000000000002
20
68.59999999999998
10
318.60000000000002
20
61.399999999999991
0
LWPOLYLINE
5
213
100
AcDbEntity
8
0
100
AcDbPolyline
90
4
70
1
43
0.0
10
168.59999999999999
20
11.39999999999997
10
161.40000000000001
20
11.39999999999997
10
161.40000000000001
20
18.599999999999977
10
168.59999999999999
20
18.599999999999977
0
LWPOLYLINE
5
214
100
AcDbEntity
8
0
100
AcDbPolyline
90
4
70
1
43
0.0
10
258.60000000000002
20
11.399999999999979
10
251.40000000000001
20
11.399999999999979
10
251.40000000000001
20
18.599999999999987
10
258.60000000000002
20
18.599999999999987
0
LWPOLYLINE
5
215
100
AcDbEntity
8
0
100
AcDbPolyline
90
4
70
1
43
0.0
10
208.59999999999999
20
11.399999999999979
10
201.40000000000001
20
11.399999999999979
10
201.40000000000001
20
18.599999999999987
10
208.59999999999999
20
18.599999999999987
0
LWPOLYLINE
5
216
100
AcDbEntity
8
0
100
AcDbPolyline
90
4
70
1
43
0.0
10
8.600000000000005
20
1.3999999999999617
10
1.4000000000000059
20
1.3999999999999613
10
1.4000000000000057
20
8.5999999999999677
10
8.600000000000005
20
8.5999999999999677
0
LWPOLYLINE
5
217
100
AcDbEntity
8
0
100
AcDbPolyline
90
4
70
1
43
0.0
10
311.39999999999998
20
51.399999999999991
10
311.39999999999998
20
58.599999999999987
10
318.60000000000002
20
58.599999999999987
10
318.60000000000002
20
51.399999999999991
0
LWPOLYLINE
5
218
100
AcDbEntity
8
0
100
AcDbPolyline
90
4
70
1
43
0.0
10
288.60000000000002
20
11.399999999999979
10
281.39999999999998
20
11.399999999999979
10
281.39999999999998
20
18.599999999999987
10
288.60000000000002
20
18.599999999999987
0
LWPOLYLINE
5
219
100
AcDbEntity
8
0
100
AcDbPolyline
90
4
70
1
43
0.0
10
38.600000000000001
20
11.399999999999961
10
31.400000000000006
20
11.399999999999961
10
31.400000000000006
20
18.599999999999966
10
38.600000000000001
20
18.599999999999966
0
LWPOLYLINE
5
220
100
AcDbEntity
8
0
100
AcDbPolyline
90
4
70
1
43
0.0
10
278.60000000000002
20
1.3999999999999795
10
271.39999999999998
20
1.399999999999979
10
271.39999999999998
20
8.5999999999999854
10
278.60000000000002
20
8.5999999999999854
0
LWPOLYLINE
5
221
100
AcDbEntity
8
0
100
AcDbPolyline
90
4
70
1
43
0.0
10
301.39999999999998
20
21.399999999999988
10
301.39999999999998
20
28.599999999999994
10
308.60000000000002
20
28.599999999999994
10
308.60000000000002
20
21.399999999999988
0
LWPOLYLINE
5
222
100
AcDbEntity
8
0
100
AcDbPolyline
90
4
70
1
43
0.0
10
218.59999999999999
20
11.399999999999979
10
211.40000000000001
20
11.399999999999979
10
211.40000000000001
20
18.599999999999987
10
218.59999999999999
20
18.599999999999987
0
LWPOLYLINE
5
223
100
AcDbEntity
8
0
100
AcDbPolyline
90
4
70
1
43
0.0
10
311.39999999999998
20
21.399999999999988
10
311.39999999999998
20
28.599999999999994
10
318.60000000000002
20
28.599999999999994
10
318.60000000000002
20
21.399999999999988
0
LWPOLYLINE
5
224
100
AcDbEntity
8
0
100
AcDbPolyline
90
4
70
1
43
0.0
10
248.59999999999999
20
11.399999999999979
10
241.40000000000001
20
11.399999999999979
10
241.40000000000001
20
18.599999999999987
10
248.59999999999999
20
18.599999999999987
0
LWPOLYLINE
5
225
100
AcDbEntity
8
0
100
AcDbPolyline
90
4
70
1
43
0.0
10
288.60000000000002
20
1.3999999999999795
10
281.39999999999998
20
1.399999999999979
10
281.39999999999998
20
8.5999999999999854
10
288.60000000000002
20
8.5999999999999854
0
LWPOLYLINE
5
226
100
AcDbEntity
8
0
100
AcDbPolyline
90
4
70
1
43
0.0
10
298.60000000000002
20
1.3999999999999795
10
291.39999999999998
20
1.399999999999979
10
291.39999999999998
20
8.5999999999999943
10
298.60000000000002
20
8.5999999999999943
0
LWPOLYLINE
5
227
100
AcDbEntity
8
0
100
AcDbPolyline
90
4
70
1
43
0.0
10
18.600000000000001
20
11.399999999999961
10
11.400000000000006
20
11.399999999999961
10
11.400000000000004
20
18.599999999999966
10
18.600000000000001
20
18.599999999999966
0
LWPOLYLINE
5
228
100
AcDbEntity
8
0
100
AcDbPolyline
90
4
70
1
43
0.0
10
268.60000000000002
20
11.399999999999979
10
261.39999999999998
20
11.399999999999979
10
261.39999999999998
20
18.599999999999987
10
268.60000000000002
20
18.599999999999987
0
LWPOLYLINE
5
229
100
AcDbEntity
8
0
100
AcDbPolyline
90
4
70
1
43
0.0
10
188.59999999999999
20
11.399999999999979
10
181.40000000000001
20
11.399999999999979
10
181.40000000000001
20
18.599999999999987
10
188.59999999999999
20
18.599999999999987
0
LWPOLYLINE
5
230
100
AcDbEntity
8
0
100
AcDbPolyline
90
4
70
1
43
0.0
10
138.59999999999999
20
11.39999999999997
10
131.40000000000001
20
11.39999999999997
10
131.40000000000001
20
18.599999999999977
10
138.59999999999999
20
18.599999999999977
0
LWPOLYLINE
5
231
100
AcDbEntity
8
0
100
AcDbPolyline
90
4
70
1
43
0.0
10
278.60000000000002
20
11.399999999999979
10
271.39999999999998
20
11.399999999999979
10
271.39999999999998
20
18.599999999999987
10
278.60000000000002
20
18.599999999999987
0
LWPOLYLINE
5
232
100
AcDbEntity
8
0
100
AcDbPolyline
90
4
70
1
43
0.0
10
298.60000000000002
20
11.399999999999979
10
291.39999999999998
20
11.399999999999979
10
291.39999999999998
20
18.599999999999994
10
298.60000000000002
20
18.599999999999994
0
LWPOLYLINE
5
233
100
AcDbEntity
8
0
100
AcDbPolyline
90
4
70
1
43
0.0
10
311.39999999999998
20
71.399999999999991
10
311.39999999999998
20
78.59999999999998
10
318.60000000000002
20
78.59999999999998
10
318.60000000000002
20
71.399999999999991
0
LWPOLYLINE
5
234
100
AcDbEntity
8
0
100
AcDbPolyline
90
4
70
1
43
0.0
10
28.600000000000001
20
11.399999999999961
10
21.400000000000006
20
11.399999999999961
10
21.400000000000006
20
18.599999999999966
10
28.600000000000001
20
18.599999999999966
0
LWPOLYLINE
5
235
100
AcDbEntity
8
0
100
AcDbPolyline
90
4
70
1
43
0.0
10
301.39999999999998
20
51.399999999999991
10
301.39999999999998
20
58.599999999999987
10
308.60000000000002
20
58.599999999999987
10
308.60000000000002
20
51.399999999999991
0
LWPOLYLINE
5
236
100
AcDbEntity
8
0
100
AcDbPolyline
90
4
70
1
43
0.0
10
38.600000000000001
20
21.399999999999963
10
31.400000000000006
20
21.399999999999963
10
31.400000000000006
20
28.599999999999966
10
38.600000000000001
20
28.599999999999966
0
LWPOLYLINE
5
237
100
AcDbEntity
8
0
100
AcDbPolyline
90
4
70
1
43
0.0
10
8.600000000000005
20
21.399999999999963
10
1.4000000000000046
20
21.399999999999963
10
1.4000000000000035
20
28.599999999999966
10
8.600000000000005
20
28.599999999999966
0
LWPOLYLINE
5
238
100
AcDbEntity
8
0
100
AcDbPolyline
90
4
70
1
43
0.0
10
78.600000000000009
20
1.3999999999999706
10
71.400000000000006
20
1.3999999999999702
10
71.400000000000006
20
8.5999999999999766
10
78.600000000000009
20
8.5999999999999766
0
LWPOLYLINE
5
239
100
AcDbEntity
8
0
100
AcDbPolyline
90
4
70
1
43
0.0
10
68.600000000000009
20
11.39999999999997
10
61.400000000000006
20
11.39999999999997
10
61.400000000000006
20
18.599999999999977
10
68.600000000000009
20
18.599999999999977
0
LWPOLYLINE
5
240
100
AcDbEntity
8
0
100
AcDbPolyline
90
4
70
1
43
0.0
10
208.59999999999999
20
41.399999999999977
10
201.40000000000001
20
41.399999999999977
10
201.40000000000001
20
48.59999999999998
10
208.59999999999999
20
48.599999999999987
0
LWPOLYLINE
5
241
100
AcDbEntity
8
0
100
AcDbPolyline
90
4
70
1
43
0.0
10
28.600000000000001
20
31.399999999999963
10
21.400000000000006
20
31.399999999999963
10
21.400000000000006
20
38.599999999999966
10
28.600000000000001
20
38.599999999999966
0
LWPOLYLINE
5
242
100
AcDbEntity
8
0
100
AcDbPolyline
90
4
70
1
43
0.0
10
98.599999999999994
20
1.3999999999999706
10
91.400000000000006
20
1.3999999999999702
10
91.400000000000006
20
8.5999999999999766
10
98.599999999999994
20
8.5999999999999766
0
LWPOLYLINE
5
243
100
AcDbEntity
8
0
100
AcDbPolyline
90
4
70
1
43
0.0
10
288.60000000000002
20
41.399999999999991
10
281.39999999999998
20
41.399999999999991
10
281.39999999999998
20
48.599999999999987
10
288.60000000000002
20
48.599999999999987
0
LWPOLYLINE
5
244
100
AcDbEntity
8
0
100
AcDbPolyline
90
4
70
1
43
0.0
10
78.600000000000009
20
41.39999999999997
10
71.399999999999991
20
41.39999999999997
10
71.399999999999991
20
48.599999999999966
10
78.600000000000009
20
48.599999999999966
0
LWPOLYLINE
5
245
100
AcDbEntity
8
0
100
AcDbPolyline
90
4
70
1
43
0.0
10
218.59999999999999
20
1.3999999999999795
10
211.40000000000001
20
1.399999999999979
10
211.40000000000001
20
8.5999999999999854
10
218.59999999999999
20
8.5999999999999854
0
LWPOLYLINE
5
246
100
AcDbEntity
8
0
100
AcDbPolyline
90
4
70
1
43
0.0
10
298.60000000000002
20
41.399999999999991
10
291.39999999999998
20
41.399999999999991
10
291.39999999999998
20
48.599999999999987
10
298.60000000000002
20
48.599999999999987
0
LWPOLYLINE
5
247
100
AcDbEntity
8
0
100
AcDbPolyline
90
4
70
1
43
0.0
10
198.59999999999999
20
41.399999999999977
10
191.40000000000001
20
41.399999999999977
10
191.40000000000001
20
48.59999999999998
10
198.59999999999999
20
48.59999999999998
0
LWPOLYLINE
5
248
100
AcDbEntity
8
0
100
AcDbPolyline
90
4
70
1
43
0.0
10
118.59999999999999
20
1.3999999999999706
10
111.40000000000001
20
1.3999999999999702
10
111.40000000000001
20
8.5999999999999766
10
118.59999999999999
20
8.5999999999999766
0
LWPOLYLINE
5
249
100
AcDbEntity
8
0
100
AcDbPolyline
90
4
70
1
43
0.0
10
78.600000000000009
20
11.39999999999997
10
71.400000000000006
20
11.39999999999997
10
71.400000000000006
20
18.599999999999977
10
78.600000000000009
20
18.599999999999977
0
LWPOLYLINE
5
250
100
AcDbEntity
8
0
100
AcDbPolyline
90
4
70
1
43
0.0
10
108.59999999999999
20
1.3999999999999706
10
101.40000000000001
20
1.3999999999999702
10
101.40000000000001
20
8.5999999999999766
10
108.59999999999999
20
8.5999999999999766
0
LWPOLYLINE
5
251
100
AcDbEntity
8
0
100
AcDbPolyline
90
4
70
1
43
0.0
10
208.59999999999999
20
1.3999999999999795
10
201.40000000000001
20
1.399999999999979
10
201.40000000000001
20
8.5999999999999854
10
208.59999999999999
20
8.5999999999999854
0
LWPOLYLINE
5
252
100
AcDbEntity
8
0
100
AcDbPolyline
90
4
70
1
43
0.0
10
228.59999999999999
20
41.399999999999991
10
221.40000000000001
20
41.399999999999991
10
221.40000000000001
20
48.59999999999998
10
228.59999999999999
20
48.599999999999987
0
LWPOLYLINE
5
253
100
AcDbEntity
8
0
100
AcDbPolyline
90
4
70
1
43
0.0
10
18.600000000000001
20
31.399999999999963
10
11.400000000000006
20
31.399999999999963
10
11.400000000000002
20
38.599999999999966
10
18.600000000000001
20
38.599999999999966
0
LWPOLYLINE
5
254
100
AcDbEntity
8
0
100
AcDbPolyline
90
4
70
1
43
0.0
10
178.59999999999999
20
41.399999999999977
10
171.40000000000001
20
41.399999999999977
10
171.40000000000001
20
48.59999999999998
10
178.59999999999999
20
48.59999999999998
0
LWPOLYLINE
5
255
100
AcDbEntity
8
0
100
AcDbPolyline
90
4
70
1
43
0.0
10
248.59999999999999
20
1.3999999999999795
10
241.40000000000001
20
1.399999999999979
10
241.40000000000001
20
8.5999999999999854
10
248.59999999999999
20
8.5999999999999854
0
LWPOLYLINE
5
256
100
AcDbEntity
8
0
100
AcDbPolyline
90
4
70
1
43
0.0
10
28.600000000000001
20
41.39999999999997
10
21.400000000000006
20
41.39999999999997
10
21.400000000000006
20
48.599999999999959
10
28.600000000000001
20
48.599999999999966
0
LWPOLYLINE
5
257
100
AcDbEntity
8
0
100
AcDbPolyline
90
4
70
1
43
0.0
10
58.600000000000001
20
21.399999999999963
10
51.399999999999999
20
21.399999999999963
10
51.399999999999999
20
28.599999999999966
10
58.600000000000001
20
28.599999999999966
0
LWPOLYLINE
5
258
100
AcDbEntity
8
0
100
AcDbPolyline
90
4
70
1
43
0.0
10
8.6000000000000032
20
31.399999999999963
10
1.4000000000000037
20
31.399999999999963
10
1.4000000000000035
20
38.599999999999966
10
8.6000000000000032
20
38.599999999999966
0
LWPOLYLINE
5
259
100
AcDbEntity
8
0
100
AcDbPolyline
90
4
70
1
43
0.0
10
238.59999999999999
20
41.399999999999991
10
231.40000000000001
20
41.399999999999991
10
231.40000000000001
20
48.59999999999998
10
238.59999999999999
20
48.599999999999987
0
LWPOLYLINE
5
260
100
AcDbEntity
8
0
100
AcDbPolyline
90
4
70
1
43
0.0
10
38.600000000000001
20
41.39999999999997
10
31.400000000000006
20
41.39999999999997
10
31.400000000000006
20
48.599999999999966
10
38.600000000000001
20
48.599999999999966
0
LWPOLYLINE
5
261
100
AcDbEntity
8
0
100
AcDbPolyline
90
4
70
1
43
0.0
10
68.600000000000009
20
1.3999999999999706
10
61.400000000000006
20
1.3999999999999702
10
61.400000000000006
20
8.5999999999999766
10
68.600000000000009
20
8.5999999999999766
0
LWPOLYLINE
5
262
100
AcDbEntity
8
0
100
AcDbPolyline
90
4
70
1
43
0.0
10
128.59999999999999
20
1.3999999999999706
10
121.40000000000001
20
1.3999999999999702
10
121.40000000000001
20
8.5999999999999766
10
128.59999999999999
20
8.5999999999999766
0
LWPOLYLINE
5
263
100
AcDbEntity
8
0
100
AcDbPolyline
90
4
70
1
43
0.0
10
68.600000000000009
20
21.39999999999997
10
61.399999999999999
20
21.39999999999997
10
61.399999999999999
20
28.599999999999977
10
68.600000000000009
20
28.599999999999977
0
LWPOLYLINE
5
264
100
AcDbEntity
8
0
100
AcDbPolyline
90
4
70
1
43
0.0
10
88.599999999999994
20
11.39999999999997
10
81.400000000000006
20
11.39999999999997
10
81.400000000000006
20
18.599999999999977
10
88.599999999999994
20
18.599999999999977
0
LWPOLYLINE
5
265
100
AcDbEntity
8
0
100
AcDbPolyline
90
4
70
1
43
0.0
10
148.59999999999999
20
1.3999999999999706
10
141.40000000000001
20
1.3999999999999702
10
141.40000000000001
20
8.5999999999999766
10
148.59999999999999
20
8.5999999999999766
0
LWPOLYLINE
5
266
100
AcDbEntity
8
0
100
AcDbPolyline
90
4
70
1
43
0.0
10
188.59999999999999
20
41.399999999999977
10
181.40000000000001
20
41.399999999999977
10
181.40000000000001
20
48.59999999999998
10
188.59999999999999
20
48.59999999999998
0
LWPOLYLINE
5
267
100
AcDbEntity
8
0
100
AcDbPolyline
90
4
70
1
43
0.0
10
78.600000000000009
20
21.39999999999997
10
71.399999999999991
20
21.39999999999997
10
71.399999999999991
20
28.599999999999977
10
78.600000000000009
20
28.599999999999977
0
LWPOLYLINE
5
268
100
AcDbEntity
8
0
100
AcDbPolyline
90
4
70
1
43
0.0
10
198.59999999999999
20
1.3999999999999795
10
191.40000000000001
20
1.399999999999979
10
191.40000000000001
20
8.5999999999999854
10
198.59999999999999
20
8.5999999999999854
0
LWPOLYLINE
5
269
100
AcDbEntity
8
0
100
AcDbPolyline
90
4
70
1
43
0.0
10
138.59999999999999
20
1.3999999999999706
10
131.40000000000001
20
1.3999999999999702
10
131.40000000000001
20
8.5999999999999766
10
138.59999999999999
20
8.5999999999999766
0
LWPOLYLINE
5
270
100
AcDbEntity
8
0
100
AcDbPolyline
90
4
70
1
43
0.0
10
218.59999999999999
20
41.399999999999991
10
211.40000000000001
20
41.399999999999991
10
211.40000000000001
20
48.59999999999998
10
218.59999999999999
20
48.599999999999987
0
LWPOLYLINE
5
271
100
AcDbEntity
8
0
100
AcDbPolyline
90
4
70
1
43
0.0
10
178.59999999999999
20
1.3999999999999706
10
171.40000000000001
20
1.3999999999999702
10
171.40000000000001
20
8.5999999999999854
10
178.59999999999999
20
8.5999999999999854
0
LWPOLYLINE
5
272
100
AcDbEntity
8
0
100
AcDbPolyline
90
4
70
1
43
0.0
10
228.59999999999999
20
1.3999999999999795
10
221.40000000000001
20
1.399999999999979
10
221.40000000000001
20
8.5999999999999854
10
228.59999999999999
20
8.5999999999999854
0
LWPOLYLINE
5
273
100
AcDbEntity
8
0
100
AcDbPolyline
90
4
70
1
43
0.0
10
258.60000000000002
20
41.399999999999991
10
251.40000000000001
20
41.399999999999991
10
251.40000000000001
20
48.59999999999998
10
258.60000000000002
20
48.599999999999987
0
LWPOLYLINE
5
274
100
AcDbEntity
8
0
100
AcDbPolyline
90
4
70
1
43
0.0
10
58.600000000000001
20
41.39999999999997
10
51.399999999999999
20
41.39999999999997
10
51.399999999999999
20
48.599999999999966
10
58.600000000000001
20
48.599999999999966
0
LWPOLYLINE
5
275
100
AcDbEntity
8
0
100
AcDbPolyline
90
4
70
1
43
0.0
10
278.60000000000002
20
41.399999999999991
10
271.39999999999998
20
41.399999999999991
10
271.39999999999998
20
48.599999999999987
10
278.60000000000002
20
48.599999999999987
0
LWPOLYLINE
5
276
100
AcDbEntity
8
0
100
AcDbPolyline
90
4
70
1
43
0.0
10
48.600000000000001
20
41.39999999999997
10
41.399999999999999
20
41.39999999999997
10
41.399999999999999
20
48.599999999999966
10
48.600000000000001
20
48.599999999999966
0
LWPOLYLINE
5
277
100
AcDbEntity
8
0
100
AcDbPolyline
90
4
70
1
43
0.0
10
68.600000000000009
20
41.39999999999997
10
61.399999999999999
20
41.39999999999997
10
61.399999999999999
20
48.599999999999966
10
68.600000000000009
20
48.599999999999966
0
LWPOLYLINE
5
278
100
AcDbEntity
8
0
100
AcDbPolyline
90
4
70
1
43
0.0
10
168.59999999999999
20
41.399999999999977
10
161.40000000000001
20
41.399999999999977
10
161.40000000000001
20
48.59999999999998
10
168.59999999999999
20
48.59999999999998
0
LWPOLYLINE
5
279
100
AcDbEntity
8
0
100
AcDbPolyline
90
4
70
1
43
0.0
10
88.599999999999994
20
21.39999999999997
10
81.400000000000006
20
21.39999999999997
10
81.400000000000006
20
28.599999999999977
10
88.599999999999994
20
28.599999999999977
0
LWPOLYLINE
5
280
100
AcDbEntity
8
0
100
AcDbPolyline
90
4
70
1
43
0.0
10
268.60000000000002
20
41.399999999999991
10
261.39999999999998
20
41.399999999999991
10
261.39999999999998
20
48.599999999999987
10
268.60000000000002
20
48.599999999999987
0
LWPOLYLINE
5
281
100
AcDbEntity
8
0
100
AcDbPolyline
90
4
70
1
43
0.0
10
98.599999999999994
20
21.39999999999997
10
91.400000000000006
20
21.39999999999997
10
91.400000000000006
20
28.599999999999977
10
98.599999999999994
20
28.599999999999977
0
LWPOLYLINE
5
282
100
AcDbEntity
8
0
100
AcDbPolyline
90
4
70
1
43
0.0
10
158.59999999999999
20
1.3999999999999706
10
151.40000000000001
20
1.3999999999999702
10
151.40000000000001
20
8.5999999999999766
10
158.59999999999999
20
8.5999999999999766
0
LWPOLYLINE
5
283
100
AcDbEntity
8
0
100
AcDbPolyline
90
4
70
1
43
0.0
10
188.59999999999999
20
1.3999999999999795
10
181.40000000000001
20
1.399999999999979
10
181.40000000000001
20
8.5999999999999854
10
188.59999999999999
20
8.5999999999999854
0
LWPOLYLINE
5
284
100
AcDbEntity
8
0
100
AcDbPolyline
90
4
70
1
43
0.0
10
238.59999999999999
20
1.3999999999999795
10
231.40000000000001
20
1.399999999999979
10
231.40000000000001
20
8.5999999999999854
10
238.59999999999999
20
8.5999999999999854
0
LWPOLYLINE
5
285
100
AcDbEntity
8
0
100
AcDbPolyline
90
4
70
1
43
0.0
10
148.59999999999999
20
41.39999999999997
10
141.40000000000001
20
41.39999999999997
10
141.40000000000001
20
48.59999999999998
10
148.59999999999999
20
48.59999999999998
0
LWPOLYLINE
5
286
100
AcDbEntity
8
0
100
AcDbPolyline
90
4
70
1
43
0.0
10
248.59999999999999
20
41.399999999999991
10
241.40000000000001
20
41.399999999999991
10
241.40000000000001
20
48.59999999999998
10
248.59999999999999
20
48.599999999999987
0
LWPOLYLINE
5
287
100
AcDbEntity
8
0
100
AcDbPolyline
90
4
70
1
43
0.0
10
168.59999999999999
20
1.3999999999999706
10
161.40000000000001
20
1.3999999999999702
10
161.40000000000001
20
8.5999999999999766
10
168.59999999999999
20
8.5999999999999766
0
LWPOLYLINE
5
288
100
AcDbEntity
8
0
100
AcDbPolyline
90
4
70
1
43
0.0
10
158.59999999999999
20
41.399999999999977
10
151.40000000000001
20
41.399999999999977
10
151.40000000000001
20
48.59999999999998
10
158.59999999999999
20
48.59999999999998
0
LWPOLYLINE
5
289
100
AcDbEntity
8
0
100
AcDbPolyline
90
4
70
1
43
0.0
10
48.600000000000001
20
21.399999999999963
10
41.399999999999999
20
21.399999999999963
10
41.399999999999999
20
28.599999999999966
10
48.600000000000001
20
28.599999999999966
0
LWPOLYLINE
5
290
100
AcDbEntity
8
0
100
AcDbPolyline
90
4
70
1
43
0.0
10
58.600000000000009
20
1.3999999999999617
10
51.400000000000006
20
1.3999999999999613
10
51.400000000000006
20
8.5999999999999677
10
58.600000000000009
20
8.5999999999999677
0
LWPOLYLINE
5
291
100
AcDbEntity
8
0
100
AcDbPolyline
90
4
70
1
43
0.0
10
88.599999999999994
20
1.3999999999999706
10
81.400000000000006
20
1.3999999999999702
10
81.400000000000006
20
8.5999999999999766
10
88.599999999999994
20
8.5999999999999766
0
LWPOLYLINE
5
292
100
AcDbEntity
8
0
100
AcDbPolyline
90
4
70
1
43
0.0
10
158.59999999999999
20
31.39999999999997
10
151.40000000000001
20
31.39999999999997
10
151.40000000000001
20
38.59999999999998
10
158.59999999999999
20
38.59999999999998
0
LWPOLYLINE
5
293
100
AcDbEntity
8
0
100
AcDbPolyline
90
4
70
1
43
0.0
10
308.60000000000002
20
71.399999999999991
10
301.39999999999998
20
71.399999999999991
10
301.39999999999998
20
78.59999999999998
10
308.60000000000002
20
78.59999999999998
0
LWPOLYLINE
5
294
100
AcDbEntity
8
0
100
AcDbPolyline
90
4
70
1
43
0.0
10
268.60000000000002
20
31.399999999999977
10
261.39999999999998
20
31.399999999999977
10
261.39999999999998
20
38.599999999999987
10
268.60000000000002
20
38.599999999999987
0
LWPOLYLINE
5
295
100
AcDbEntity
8
0
100
AcDbPolyline
90
4
70
1
43
0.0
10
188.59999999999999
20
71.399999999999977
10
181.40000000000001
20
71.399999999999977
10
181.40000000000001
20
78.59999999999998
10
188.59999999999999
20
78.59999999999998
0
LWPOLYLINE
5
296
100
AcDbEntity
8
0
100
AcDbPolyline
90
4
70
1
43
0.0
10
198.59999999999999
20
31.399999999999977
10
191.40000000000001
20
31.399999999999977
10
191.40000000000001
20
38.599999999999987
10
198.59999999999999
20
38.599999999999987
0
LWPOLYLINE
5
297
100
AcDbEntity
8
0
100
AcDbPolyline
90
4
70
1
43
0.0
10
128.59999999999999
20
41.39999999999997
10
121.40000000000001
20
41.39999999999997
10
121.40000000000001
20
48.59999999999998
10
128.59999999999999
20
48.599999999999966
0
LWPOLYLINE
5
298
100
AcDbEntity
8
0
100
AcDbPolyline
90
4
70
1
43
0.0
10
8.6000000000000014
20
61.39999999999997
10
1.4000000000000015
20
61.39999999999997
10
1.4000000000000012
20
68.599999999999966
10
8.6000000000000014
20
68.599999999999966
0
LWPOLYLINE
5
299
100
AcDbEntity
8
0
100
AcDbPolyline
90
4
70
1
43
0.0
10
118.59999999999999
20
31.39999999999997
10
111.40000000000001
20
31.39999999999997
10
111.40000000000001
20
38.59999999999998
10
118.59999999999999
20
38.59999999999998
0
LWPOLYLINE
5
300
100
AcDbEntity
8
0
100
AcDbPolyline
90
4
70
1
43
0.0
10
208.59999999999999
20
31.399999999999977
10
201.40000000000001
20
31.399999999999977
10
201.40000000000001
20
38.599999999999987
10
208.59999999999999
20
38.599999999999987
0
LWPOLYLINE
5
301
100
AcDbEntity
8
0
100
AcDbPolyline
90
4
70
1
43
0.0
10
288.60000000000002
20
51.399999999999991
10
281.39999999999998
20
51.399999999999991
10
281.39999999999998
20
58.599999999999987
10
288.60000000000002
20
58.599999999999987
0
LWPOLYLINE
5
302
100
AcDbEntity
8
0
100
AcDbPolyline
90
4
70
1
43
0.0
10
18.600000000000001
20
41.39999999999997
10
11.400000000000004
20
41.39999999999997
10
11.400000000000002
20
48.599999999999959
10
18.600000000000001
20
48.599999999999966
0
LWPOLYLINE
5
303
100
AcDbEntity
8
0
100
AcDbPolyline
90
4
70
1
43
0.0
10
178.59999999999999
20
31.39999999999997
10
171.40000000000001
20
31.39999999999997
10
171.40000000000001
20
38.599999999999987
10
178.59999999999999
20
38.599999999999987
0
LWPOLYLINE
5
304
100
AcDbEntity
8
0
100
AcDbPolyline
90
4
70
1
43
0.0
10
148.59999999999999
20
31.39999999999997
10
141.40000000000001
20
31.39999999999997
10
141.40000000000001
20
38.59999999999998
10
148.59999999999999
20
38.59999999999998
0
LWPOLYLINE
5
305
100
AcDbEntity
8
0
100
AcDbPolyline
90
4
70
1
43
0.0
10
228.59999999999999
20
31.399999999999977
10
221.40000000000001
20
31.399999999999977
10
221.40000000000001
20
38.599999999999987
10
228.59999999999999
20
38.599999999999987
0
LWPOLYLINE
5
306
100
AcDbEntity
8
0
100
AcDbPolyline
90
4
70
1
43
0.0
10
238.59999999999999
20
31.399999999999977
10
231.40000000000001
20
31.399999999999977
10
231.40000000000001
20
38.599999999999987
10
238.59999999999999
20
38.599999999999987
0
LWPOLYLINE
5
307
100
AcDbEntity
8
0
100
AcDbPolyline
90
4
70
1
43
0.0
10
8.6000000000000032
20
41.39999999999997
10
1.400000000000003
20
41.39999999999997
10
1.4000000000000024
20
48.599999999999959
10
8.6000000000000032
20
48.599999999999966
0
LWPOLYLINE
5
308
100
AcDbEntity
8
0
100
AcDbPolyline
90
4
70
1
43
0.0
10
248.59999999999999
20
31.399999999999977
10
241.40000000000001
20
31.399999999999977
10
241.40000000000001
20
38.599999999999987
10
248.59999999999999
20
38.599999999999987
0
LWPOLYLINE
5
309
100
AcDbEntity
8
0
100
AcDbPolyline
90
4
70
1
43
0.0
10
168.59999999999999
20
31.39999999999997
10
161.40000000000001
20
31.39999999999997
10
161.40000000000001
20
38.59999999999998
10
168.59999999999999
20
38.59999999999998
0
LWPOLYLINE
5
310
100
AcDbEntity
8
0
100
AcDbPolyline
90
4
70
1
43
0.0
10
188.59999999999999
20
31.399999999999977
10
181.40000000000001
20
31.399999999999977
10
181.40000000000001
20
38.599999999999987
10
188.59999999999999
20
38.599999999999987
0
LWPOLYLINE
5
311
100
AcDbEntity
8
0
100
AcDbPolyline
90
4
70
1
43
0.0
10
68.600000000000009
20
61.39999999999997
10
61.399999999999999
20
61.39999999999997
10
61.399999999999999
20
68.599999999999966
10
68.600000000000009
20
68.599999999999966
0
LWPOLYLINE
5
312
100
AcDbEntity
8
0
100
AcDbPolyline
90
4
70
1
43
0.0
10
278.60000000000002
20
31.399999999999977
10
271.39999999999998
20
31.399999999999977
10
271.39999999999998
20
38.599999999999987
10
278.60000000000002
20
38.599999999999987
0
LWPOLYLINE
5
313
100
AcDbEntity
8
0
100
AcDbPolyline
90
4
70
1
43
0.0
10
128.59999999999999
20
31.39999999999997
10
121.40000000000001
20
31.39999999999997
10
121.40000000000001
20
38.59999999999998
10
128.59999999999999
20
38.59999999999998
0
LWPOLYLINE
5
314
100
AcDbEntity
8
0
100
AcDbPolyline
90
4
70
1
43
0.0
10
118.59999999999999
20
41.39999999999997
10
111.40000000000001
20
41.39999999999997
10
111.40000000000001
20
48.59999999999998
10
118.59999999999999
20
48.599999999999966
0
LWPOLYLINE
5
315
100
AcDbEntity
8
0
100
AcDbPolyline
90
4
70
1
43
0.0
10
18.600000000000001
20
61.39999999999997
10
11.400000000000004
20
61.39999999999997
10
11.399999999999999
20
68.599999999999966
10
18.600000000000001
20
68.599999999999966
0
LWPOLYLINE
5
316
100
AcDbEntity
8
0
100
AcDbPolyline
90
4
70
1
43
0.0
10
138.59999999999999
20
41.39999999999997
10
131.40000000000001
20
41.39999999999997
10
131.40000000000001
20
48.59999999999998
10
138.59999999999999
20
48.599999999999966
0
LWPOLYLINE
5
317
100
AcDbEntity
8
0
100
AcDbPolyline
90
4
70
1
43
0.0
10
218.59999999999999
20
31.399999999999977
10
211.40000000000001
20
31.399999999999977
10
211.40000000000001
20
38.599999999999987
10
218.59999999999999
20
38.599999999999987
0
LWPOLYLINE
5
318
100
AcDbEntity
8
0
100
AcDbPolyline
90
4
70
1
43
0.0
10
108.59999999999999
20
31.39999999999997
10
101.40000000000001
20
31.39999999999997
10
101.40000000000001
20
38.59999999999998
10
108.59999999999999
20
38.59999999999998
0
LWPOLYLINE
5
319
100
AcDbEntity
8
0
100
AcDbPolyline
90
4
70
1
43
0.0
10
138.59999999999999
20
61.39999999999997
10
131.40000000000001
20
61.39999999999997
10
131.40000000000001
20
68.59999999999998
10
138.59999999999999
20
68.59999999999998
0
LWPOLYLINE
5
320
100
AcDbEntity
8
0
100
AcDbPolyline
90
4
70
1
43
0.0
10
208.59999999999999
20
71.399999999999977
10
201.40000000000001
20
71.399999999999977
10
201.40000000000001
20
78.59999999999998
10
208.59999999999999
20
78.59999999999998
0
LWPOLYLINE
5
321
100
AcDbEntity
8
0
100
AcDbPolyline
90
4
70
1
43
0.0
10
128.59999999999999
20
61.39999999999997
10
121.40000000000001
20
61.39999999999997
10
121.40000000000001
20
68.59999999999998
10
128.59999999999999
20
68.599999999999966
0
LWPOLYLINE
5
322
100
AcDbEntity
8
0
100
AcDbPolyline
90
4
70
1
43
0.0
10
298.60000000000002
20
51.399999999999991
10
291.39999999999998
20
51.399999999999991
10
291.39999999999998
20
58.599999999999987
10
298.60000000000002
20
58.599999999999987
0
LWPOLYLINE
5
323
100
AcDbEntity
8
0
100
AcDbPolyline
90
4
70
1
43
0.0
10
38.600000000000001
20
61.39999999999997
10
31.400000000000002
20
61.39999999999997
10
31.400000000000002
20
68.599999999999966
10
38.600000000000001
20
68.599999999999966
0
LWPOLYLINE
5
324
100
AcDbEntity
8
0
100
AcDbPolyline
90
4
70
1
43
0.0
10
58.600000000000001
20
61.39999999999997
10
51.399999999999999
20
61.39999999999997
10
51.399999999999999
20
68.599999999999966
10
58.600000000000001
20
68.599999999999966
0
LWPOLYLINE
5
325
100
AcDbEntity
8
0
100
AcDbPolyline
90
4
70
1
43
0.0
10
78.600000000000009
20
61.39999999999997
10
71.399999999999991
20
61.39999999999997
10
71.399999999999991
20
68.59999999999998
10
78.600000000000009
20
68.599999999999966
0
LWPOLYLINE
5
326
100
AcDbEntity
8
0
100
AcDbPolyline
90
4
70
1
43
0.0
10
278.60000000000002
20
51.399999999999991
10
271.39999999999998
20
51.399999999999991
10
271.39999999999998
20
58.599999999999987
10
278.60000000000002
20
58.599999999999987
0
LWPOLYLINE
5
327
100
AcDbEntity
8
0
100
AcDbPolyline
90
4
70
1
43
0.0
10
218.59999999999999
20
71.399999999999977
10
211.40000000000001
20
71.399999999999977
10
211.40000000000001
20
78.59999999999998
10
218.59999999999999
20
78.59999999999998
0
LWPOLYLINE
5
328
100
AcDbEntity
8
0
100
AcDbPolyline
90
4
70
1
43
0.0
10
198.59999999999999
20
71.399999999999977
10
191.40000000000001
20
71.399999999999977
10
191.40000000000001
20
78.59999999999998
10
198.59999999999999
20
78.59999999999998
0
LWPOLYLINE
5
329
100
AcDbEntity
8
0
100
AcDbPolyline
90
4
70
1
43
0.0
10
268.60000000000002
20
51.399999999999991
10
261.39999999999998
20
51.399999999999991
10
261.39999999999998
20
58.599999999999987
10
268.60000000000002
20
58.599999999999987
0
LWPOLYLINE
5
330
100
AcDbEntity
8
0
100
AcDbPolyline
90
4
70
1
43
0.0
10
248.59999999999999
20
51.399999999999991
10
241.40000000000001
20
51.399999999999991
10
241.40000000000001
20
58.59999999999998
10
248.59999999999999
20
58.599999999999987
0
LWPOLYLINE
5
331
100
AcDbEntity
8
0
100
AcDbPolyline
90
4
70
1
43
0.0
10
88.599999999999994
20
61.39999999999997
10
81.400000000000006
20
61.39999999999997
10
81.400000000000006
20
68.59999999999998
10
88.599999999999994
20
68.599999999999966
0
LWPOLYLINE
5
332
100
AcDbEntity
8
0
100
AcDbPolyline
90
4
70
1
43
0.0
10
98.599999999999994
20
61.39999999999997
10
91.400000000000006
20
61.39999999999997
10
91.400000000000006
20
68.59999999999998
10
98.599999999999994
20
68.599999999999966
0
LWPOLYLINE
5
333
100
AcDbEntity
8
0
100
AcDbPolyline
90
4
70
1
43
0.0
10
228.59999999999999
20
51.399999999999991
10
221.40000000000001
20
51.399999999999991
10
221.40000000000001
20
58.59999999999998
10
228.59999999999999
20
58.599999999999987
0
LWPOLYLINE
5
334
100
AcDbEntity
8
0
100
AcDbPolyline
90
4
70
1
43
0.0
10
28.599999999999998
20
61.39999999999997
10
21.400000000000002
20
61.39999999999997
10
21.400000000000002
20
68.599999999999966
10
28.599999999999998
20
68.599999999999966
0
LWPOLYLINE
5
335
100
AcDbEntity
8
0
100
AcDbPolyline
90
4
70
1
43
0.0
10
48.600000000000001
20
61.39999999999997
10
41.399999999999999
20
61.39999999999997
10
41.399999999999999
20
68.599999999999966
10
48.600000000000001
20
68.599999999999966
0
LWPOLYLINE
5
336
100
AcDbEntity
8
0
100
AcDbPolyline
90
4
70
1
43
0.0
10
238.59999999999999
20
51.399999999999991
10
231.40000000000001
20
51.399999999999991
10
231.40000000000001
20
58.59999999999998
10
238.59999999999999
20
58.599999999999987
0
LWPOLYLINE
5
337
100
AcDbEntity
8
0
100
AcDbPolyline
90
4
70
1
43
0.0
10
258.60000000000002
20
51.399999999999991
10
251.40000000000001
20
51.399999999999991
10
251.40000000000001
20
58.59999999999998
10
258.60000000000002
20
58.599999999999987
0
LWPOLYLINE
5
338
100
AcDbEntity
8
0
100
AcDbPolyline
90
4
70
1
43
0.0
10
108.59999999999999
20
61.39999999999997
10
101.40000000000001
20
61.39999999999997
10
101.40000000000001
20
68.59999999999998
10
108.59999999999999
20
68.599999999999966
0
LWPOLYLINE
5
339
100
AcDbEntity
8
0
100
AcDbPolyline
90
4
70
1
43
0.0
10
88.599999999999994
20
41.39999999999997
10
81.400000000000006
20
41.39999999999997
10
81.400000000000006
20
48.599999999999966
10
88.599999999999994
20
48.599999999999966
0
LWPOLYLINE
5
340
100
AcDbEntity
8
0
100
AcDbPolyline
90
4
70
1
43
0.0
10
98.599999999999994
20
41.39999999999997
10
91.400000000000006
20
41.39999999999997
10
91.400000000000006
20
48.59999999999998
10
98.599999999999994
20
48.599999999999966
0
LWPOLYLINE
5
341
100
AcDbEntity
8
0
100
AcDbPolyline
90
4
70
1
43
0.0
10
38.600000000000001
20
31.399999999999963
10
31.400000000000006
20
31.399999999999963
10
31.400000000000006
20
38.599999999999966
10
38.600000000000001
20
38.599999999999966
0
LWPOLYLINE
5
342
100
AcDbEntity
8
0
100
AcDbPolyline
90
4
70
1
43
0.0
10
28.600000000000001
20
21.399999999999963
10
21.400000000000006
20
21.399999999999963
10
21.400000000000006
20
28.599999999999966
10
28.600000000000001
20
28.599999999999966
0
LWPOLYLINE
5
343
100
AcDbEntity
8
0
100
AcDbPolyline
90
4
70
1
43
0.0
10
18.600000000000001
20
21.399999999999963
10
11.400000000000006
20
21.399999999999963
10
11.400000000000004
20
28.599999999999966
10
18.600000000000001
20
28.599999999999966
0
LWPOLYLINE
5
344
100
AcDbEntity
8
0
100
AcDbPolyline
90
4
70
1
43
0.0
10
58.600000000000001
20
31.399999999999963
10
51.399999999999999
20
31.399999999999963
10
51.399999999999999
20
38.599999999999966
10
58.600000000000001
20
38.599999999999966
0
LWPOLYLINE
5
345
100
AcDbEntity
8
0
100
AcDbPolyline
90
4
70
1
43
0.0
10
48.600000000000001
20
31.399999999999963
10
41.399999999999999
20
31.399999999999963
10
41.399999999999999
20
38.599999999999966
10
48.600000000000001
20
38.599999999999966
0
LWPOLYLINE
5
346
100
AcDbEntity
8
0
100
AcDbPolyline
90
4
70
1
43
0.0
10
108.59999999999999
20
41.39999999999997
10
101.40000000000001
20
41.39999999999997
10
101.40000000000001
20
48.59999999999998
10
108.59999999999999
20
48.599999999999966
0
LWPOLYLINE
5
347
100
AcDbEntity
8
0
100
AcDbPolyline
90
4
70
1
43
0.0
10
68.600000000000009
20
31.39999999999997
10
61.399999999999999
20
31.39999999999997
10
61.399999999999999
20
38.59999999999998
10
68.600000000000009
20
38.59999999999998
0
LWPOLYLINE
5
348
100
AcDbEntity
8
0
100
AcDbPolyline
90
4
70
1
43
0.0
10
78.600000000000009
20
31.39999999999997
10
71.399999999999991
20
31.39999999999997
10
71.399999999999991
20
38.59999999999998
10
78.600000000000009
20
38.59999999999998
0
LWPOLYLINE
5
349
100
AcDbEntity
8
0
100
AcDbPolyline
90
4
70
1
43
0.0
10
288.60000000000002
20
31.399999999999977
10
281.39999999999998
20
31.399999999999977
10
281.39999999999998
20
38.599999999999987
10
288.60000000000002
20
38.599999999999987
0
LWPOLYLINE
5
350
100
AcDbEntity
8
0
100
AcDbPolyline
90
4
70
1
43
0.0
10
258.60000000000002
20
31.399999999999977
10
251.40000000000001
20
31.399999999999977
10
251.40000000000001
20
38.599999999999987
10
258.60000000000002
20
38.599999999999987
0
LWPOLYLINE
5
351
100
AcDbEntity
8
0
100
AcDbPolyline
90
4
70
1
43
0.0
10
138.59999999999999
20
31.39999999999997
10
131.40000000000001
20
31.39999999999997
10
131.40000000000001
20
38.59999999999998
10
138.59999999999999
20
38.59999999999998
0
LWPOLYLINE
5
352
100
AcDbEntity
8
0
100
AcDbPolyline
90
4
70
1
43
0.0
10
88.599999999999994
20
31.39999999999997
10
81.400000000000006
20
31.39999999999997
10
81.400000000000006
20
38.59999999999998
10
88.599999999999994
20
38.59999999999998
0
LWPOLYLINE
5
353
100
AcDbEntity
8
0
100
AcDbPolyline
90
4
70
1
43
0.0
10
98.599999999999994
20
31.39999999999997
10
91.400000000000006
20
31.39999999999997
10
91.400000000000006
20
38.59999999999998
10
98.599999999999994
20
38.59999999999998
0
LWPOLYLINE
5
354
100
AcDbEntity
8
0
100
AcDbPolyline
90
4
70
1
43
0.0
10
298.60000000000002
20
31.399999999999977
10
291.39999999999998
20
31.399999999999977
10
291.39999999999998
20
38.599999999999994
10
298.60000000000002
20
38.599999999999994
0
LWPOLYLINE
5
355
100
AcDbEntity
8
0
100
AcDbPolyline
90
4
70
1
43
0.0
10
311.39999999999998
20
1.3999999999999879
10
311.39999999999998
20
8.5999999999999943
10
318.60000000000002
20
8.5999999999999943
10
318.60000000000002
20
1.3999999999999884
0
LWPOLYLINE
5
356
100
AcDbEntity
8
0
100
AcDbPolyline
90
4
70
1
43
0.0
10
323
20
82.999999999999986
10
-3.0000000000000004
20
82.999999999999972
10
-2.9999999999999716
20
-3.0000000000000493
10
323
20
-3.0000000000000249
0
ENDSEC
0
SECTION
2
OBJECTS
0
DICTIONARY
5
C
100
AcDbDictionary
3
ACAD_GROUP
350
D
3
ACAD_MLINESTYLE
350
17
0
DICTIONARY
5
D
100
AcDbDictionary
0
DICTIONARY
5
1A
330
C
100
AcDbDictionary
0
DICTIONARY
5
17
100
AcDbDictionary
0
ENDSEC
0
EOF
