0
SECTION
2
HEADER
9
$INSUNITS
70
4
9
$ACADVER
1
AC1014
9
$HANDSEED
5
FFFF
0
ENDSEC
0
SECTION
2
TABLES
0
TABLE
2
VPORT
5
8
100
AcDbSymbolTable
0
ENDTAB
0
TABLE
2
LTYPE
5
5
100
AcDbSymbolTable
0
LTYPE
5
14
100
AcDbSymbolTableRecord
100
AcDbLinetypeTableRecord
2
BYBLOCK
70
0
0
LTYPE
5
15
100
AcDbSymbolTableRecord
100
AcDbLinetypeTableRecord
2
BYLAYER
70
0
0
ENDTAB
0
TABLE
2
LAYER
5
2
100
AcDbSymbolTable
70
2
0
LAYER
5
50
100
AcDbSymbolTableRecord
100
AcDbLayerTableRecord
2
0
70
0
6
CONTINUOUS
0
ENDTAB
0
TABLE
2
STYLE
5
3
100
AcDbSymbolTable
70
1
0
STYLE
5
11
100
AcDbSymbolTableRecord
100
AcDbTextStyleTableRecord
2
STANDARD
70
0
0
ENDTAB
0
TABLE
2
VIEW
5
6
100
AcDbSymbolTable
70
0
0
ENDTAB
0
TABLE
2
UCS
5
7
100
AcDbSymbolTable
70
0
0
ENDTAB
0
TABLE
2
APPID
5
9
100
AcDbSymbolTable
70
2
0
APPID
5
12
100
AcDbSymbolTableRecord
100
AcDbRegAppTableRecord
2
ACAD
70
0
0
ENDTAB
0
TABLE
2
DIMSTYLE
5
A
100
AcDbSymbolTable
70
1
0
ENDTAB
0
TABLE
2
BLOCK_RECORD
5
1
100
AcDbSymbolTable
70
1
0
BLOCK_RECORD
5
1F
100
AcDbSymbolTableRecord
100
AcDbBlockTableRecord
2
*MODEL_SPACE
0
BLOCK_RECORD
5
1B
100
AcDbSymbolTableRecord
100
AcDbBlockTableRecord
2
*PAPER_SPACE
0
ENDTAB
0
ENDSEC
0
SECTION
2
BLOCKS
0
BLOCK
5
20
100
AcDbEntity
100
AcDbBlockBegin
2
*MODEL_SPACE
0
ENDBLK
5
21
100
AcDbEntity
100
AcDbBlockEnd
0
BLOCK
5
1C
100
AcDbEntity
100
AcDbBlockBegin
2
*PAPER_SPACE
0
ENDBLK
5
1D
100
AcDbEntity
100
AcDbBlockEnd
0
ENDSEC
0
SECTION
2
ENTITIES
0
LWPOLYLINE
5
100
100
AcDbEntity
8
0
100
AcDbPolyline
90
4
70
1
43
0.0
10
47.599999999999966
20
2.3999999999999844
10
42.399999999999963
20
2.3999999999999844
10
42.399999999999963
20
7.5999999999999801
10
47.599999999999966
20
7.5999999999999801
0
LWPOLYLINE
5
101
100
AcDbEntity
8
0
100
AcDbPolyline
90
4
70
1
43
0.0
10
117.59999999999997
20
22.399999999999984
10
112.39999999999996
20
22.399999999999984
10
112.39999999999996
20
27.59999999999998
10
117.59999999999997
20
27.59999999999998
0
LWPOLYLINE
5
102
100
AcDbEntity
8
0
100
AcDbPolyline
90
4
70
1
43
0.0
10
137.59999999999997
20
72.399999999999977
10
132.39999999999998
20
72.399999999999977
10
132.39999999999998
20
77.59999999999998
10
137.59999999999997
20
77.59999999999998
0
LWPOLYLINE
5
103
100
AcDbEntity
8
0
100
AcDbPolyline
90
4
70
1
43
0.0
10
237.59999999999997
20
2.3999999999999844
10
232.39999999999995
20
2.3999999999999844
10
232.39999999999995
20
7.5999999999999801
10
237.59999999999997
20
7.5999999999999801
0
LWPOLYLINE
5
104
100
AcDbEntity
8
0
100
AcDbPolyline
90
4
70
1
43
0.0
10
77.599999999999966
20
2.3999999999999844
10
72.399999999999963
20
2.3999999999999844
10
72.399999999999963
20
7.5999999999999801
10
77.599999999999966
20
7.5999999999999801
0
LWPOLYLINE
5
105
100
AcDbEntity
8
0
100
AcDbPolyline
90
4
70
1
43
0.0
10
157.59999999999997
20
62.399999999999984
10
152.39999999999998
20
62.399999999999984
10
152.39999999999998
20
67.59999999999998
10
157.59999999999997
20
67.599999999999994
0
LWPOLYLINE
5
106
100
AcDbEntity
8
0
100
AcDbPolyline
90
4
70
1
43
0.0
10
137.59999999999997
20
2.3999999999999844
10
132.39999999999998
20
2.3999999999999844
10
132.39999999999998
20
7.5999999999999801
10
137.59999999999997
20
7.5999999999999801
0
LWPOLYLINE
5
107
100
AcDbEntity
8
0
100
AcDbPolyline
90
4
70
1
43
0.0
10
297.59999999999997
20
32.399999999999984
10
292.39999999999998
20
32.399999999999984
10
292.39999999999998
20
37.59999999999998
10
297.59999999999997
20
37.59999999999998
0
LWPOLYLINE
5
108
100
AcDbEntity
8
0
100
AcDbPolyline
90
4
70
1
43
0.0
10
257.59999999999997
20
2.3999999999999844
10
252.39999999999995
20
2.3999999999999844
10
252.39999999999995
20
7.5999999999999801
10
257.59999999999997
20
7.5999999999999801
0
LWPOLYLINE
5
109
100
AcDbEntity
8
0
100
AcDbPolyline
90
4
70
1
43
0.0
10
97.599999999999966
20
22.399999999999984
10
92.399999999999963
20
22.399999999999984
10
92.399999999999963
20
27.59999999999998
10
97.599999999999966
20
27.59999999999998
0
LWPOLYLINE
5
110
100
AcDbEntity
8
0
100
AcDbPolyline
90
4
70
1
43
0.0
10
87.599999999999966
20
22.399999999999984
10
82.399999999999963
20
22.399999999999984
10
82.399999999999963
20
27.59999999999998
10
87.599999999999966
20
27.59999999999998
0
LWPOLYLINE
5
111
100
AcDbEntity
8
0
100
AcDbPolyline
90
4
70
1
43
0.0
10
177.59999999999997
20
62.399999999999984
10
172.39999999999995
20
62.399999999999984
10
172.39999999999995
20
67.59999999999998
10
177.59999999999997
20
67.599999999999994
0
LWPOLYLINE
5
112
100
AcDbEntity
8
0
100
AcDbPolyline
90
4
70
1
43
0.0
10
297.59999999999997
20
62.399999999999984
10
292.39999999999998
20
62.399999999999984
10
292.39999999999998
20
67.59999999999998
10
297.59999999999997
20
67.599999999999994
0
LWPOLYLINE
5
113
100
AcDbEntity
8
0
100
AcDbPolyline
90
4
70
1
43
0.0
10
197.59999999999997
20
2.3999999999999844
10
192.39999999999995
20
2.3999999999999844
10
192.39999999999995
20
7.5999999999999801
10
197.59999999999997
20
7.5999999999999801
0
LWPOLYLINE
5
114
100
AcDbEntity
8
0
100
AcDbPolyline
90
4
70
1
43
0.0
10
147.59999999999997
20
22.399999999999984
10
142.39999999999998
20
22.399999999999984
10
142.39999999999998
20
27.59999999999998
10
147.59999999999997
20
27.59999999999998
0
LWPOLYLINE
5
115
100
AcDbEntity
8
0
100
AcDbPolyline
90
4
70
1
43
0.0
10
207.59999999999997
20
2.3999999999999844
10
202.39999999999995
20
2.3999999999999844
10
202.39999999999995
20
7.5999999999999801
10
207.59999999999997
20
7.5999999999999801
0
LWPOLYLINE
5
116
100
AcDbEntity
8
0
100
AcDbPolyline
90
4
70
1
43
0.0
10
307.59999999999997
20
32.399999999999984
10
302.39999999999998
20
32.399999999999984
10
302.39999999999998
20
37.59999999999998
10
307.59999999999997
20
37.59999999999998
0
LWPOLYLINE
5
117
100
AcDbEntity
8
0
100
AcDbPolyline
90
4
70
1
43
0.0
10
37.599999999999966
20
72.399999999999977
10
32.399999999999963
20
72.399999999999977
10
32.399999999999963
20
77.59999999999998
10
37.599999999999966
20
77.59999999999998
0
LWPOLYLINE
5
118
100
AcDbEntity
8
0
100
AcDbPolyline
90
4
70
1
43
0.0
10
167.59999999999997
20
2.3999999999999844
10
162.39999999999995
20
2.3999999999999844
10
162.39999999999995
20
7.5999999999999801
10
167.59999999999997
20
7.5999999999999801
0
LWPOLYLINE
5
119
100
AcDbEntity
8
0
100
AcDbPolyline
90
4
70
1
43
0.0
10
107.59999999999997
20
22.399999999999984
10
102.39999999999996
20
22.399999999999984
10
102.39999999999996
20
27.59999999999998
10
107.59999999999997
20
27.59999999999998
0
LWPOLYLINE
5
120
100
AcDbEntity
8
0
100
AcDbPolyline
90
4
70
1
43
0.0
10
37.599999999999966
20
2.3999999999999844
10
32.399999999999963
20
2.3999999999999844
10
32.399999999999963
20
7.5999999999999801
10
37.599999999999966
20
7.5999999999999801
0
LWPOLYLINE
5
121
100
AcDbEntity
8
0
100
AcDbPolyline
90
4
70
1
43
0.0
10
77.599999999999966
20
72.399999999999977
10
72.399999999999963
20
72.399999999999977
10
72.399999999999963
20
77.59999999999998
10
77.599999999999966
20
77.59999999999998
0
LWPOLYLINE
5
122
100
AcDbEntity
8
0
100
AcDbPolyline
90
4
70
1
43
0.0
10
227.59999999999997
20
2.3999999999999844
10
222.39999999999995
20
2.3999999999999844
10
222.39999999999995
20
7.5999999999999801
10
227.59999999999997
20
7.5999999999999801
0
LWPOLYLINE
5
123
100
AcDbEntity
8
0
100
AcDbPolyline
90
4
70
1
43
0.0
10
127.59999999999997
20
22.399999999999984
10
122.39999999999996
20
22.399999999999984
10
122.39999999999996
20
27.59999999999998
10
127.59999999999997
20
27.59999999999998
0
LWPOLYLINE
5
124
100
AcDbEntity
8
0
100
AcDbPolyline
90
4
70
1
43
0.0
10
127.59999999999997
20
2.3999999999999844
10
122.39999999999996
20
2.3999999999999844
10
122.39999999999996
20
7.5999999999999801
10
127.59999999999997
20
7.5999999999999801
0
LWPOLYLINE
5
125
100
AcDbEntity
8
0
100
AcDbPolyline
90
4
70
1
43
0.0
10
117.59999999999997
20
2.3999999999999844
10
112.39999999999996
20
2.3999999999999844
10
112.39999999999996
20
7.5999999999999801
10
117.59999999999997
20
7.5999999999999801
0
LWPOLYLINE
5
126
100
AcDbEntity
8
0
100
AcDbPolyline
90
4
70
1
43
0.0
10
137.59999999999997
20
22.399999999999984
10
132.39999999999998
20
22.399999999999984
10
132.39999999999998
20
27.59999999999998
10
137.59999999999997
20
27.59999999999998
0
LWPOLYLINE
5
127
100
AcDbEntity
8
0
100
AcDbPolyline
90
4
70
1
43
0.0
10
57.599999999999966
20
2.3999999999999844
10
52.399999999999963
20
2.3999999999999844
10
52.399999999999963
20
7.5999999999999801
10
57.599999999999966
20
7.5999999999999801
0
LWPOLYLINE
5
128
100
AcDbEntity
8
0
100
AcDbPolyline
90
4
70
1
43
0.0
10
177.59999999999997
20
22.399999999999984
10
172.39999999999995
20
22.399999999999984
10
172.39999999999995
20
27.59999999999998
10
177.59999999999997
20
27.59999999999998
0
LWPOLYLINE
5
129
100
AcDbEntity
8
0
100
AcDbPolyline
90
4
70
1
43
0.0
10
27.599999999999962
20
2.3999999999999844
10
22.399999999999967
20
2.3999999999999844
10
22.399999999999967
20
7.5999999999999801
10
27.599999999999962
20
7.5999999999999801
0
LWPOLYLINE
5
130
100
AcDbEntity
8
0
100
AcDbPolyline
90
4
70
1
43
0.0
10
47.599999999999966
20
72.399999999999977
10
42.399999999999963
20
72.399999999999977
10
42.399999999999963
20
77.59999999999998
10
47.599999999999966
20
77.59999999999998
0
LWPOLYLINE
5
131
100
AcDbEntity
8
0
100
AcDbPolyline
90
4
70
1
43
0.0
10
147.59999999999997
20
2.3999999999999844
10
142.39999999999998
20
2.3999999999999844
10
142.39999999999998
20
7.5999999999999801
10
147.59999999999997
20
7.5999999999999801
0
LWPOLYLINE
5
132
100
AcDbEntity
8
0
100
AcDbPolyline
90
4
70
1
43
0.0
10
297.59999999999997
20
12.399999999999984
10
292.39999999999998
20
12.399999999999984
10
292.39999999999998
20
17.59999999999998
10
297.59999999999997
20
17.59999999999998
0
LWPOLYLINE
5
133
100
AcDbEntity
8
0
100
AcDbPolyline
90
4
70
1
43
0.0
10
207.59999999999997
20
22.399999999999984
10
202.39999999999995
20
22.399999999999984
10
202.39999999999995
20
27.59999999999998
10
207.59999999999997
20
27.59999999999998
0
LWPOLYLINE
5
134
100
AcDbEntity
8
0
100
AcDbPolyline
90
4
70
1
43
0.0
10
107.59999999999997
20
32.399999999999984
10
102.39999999999996
20
32.399999999999984
10
102.39999999999996
20
37.59999999999998
10
107.59999999999997
20
37.59999999999998
0
LWPOLYLINE
5
135
100
AcDbEntity
8
0
100
AcDbPolyline
90
4
70
1
43
0.0
10
7.5999999999999641
20
72.399999999999977
10
2.3999999999999644
20
72.399999999999977
10
2.3999999999999644
20
77.59999999999998
10
7.5999999999999641
20
77.59999999999998
0
LWPOLYLINE
5
136
100
AcDbEntity
8
0
100
AcDbPolyline
90
4
70
1
43
0.0
10
177.59999999999997
20
2.3999999999999844
10
172.39999999999995
20
2.3999999999999844
10
172.39999999999995
20
7.5999999999999801
10
177.59999999999997
20
7.5999999999999801
0
LWPOLYLINE
5
137
100
AcDbEntity
8
0
100
AcDbPolyline
90
4
70
1
43
0.0
10
197.59999999999997
20
22.399999999999984
10
192.39999999999995
20
22.399999999999984
10
192.39999999999995
20
27.59999999999998
10
197.59999999999997
20
27.59999999999998
0
LWPOLYLINE
5
138
100
AcDbEntity
8
0
100
AcDbPolyline
90
4
70
1
43
0.0
10
317.59999999999997
20
52.399999999999984
10
312.39999999999998
20
52.399999999999984
10
312.39999999999998
20
57.59999999999998
10
317.59999999999997
20
57.59999999999998
0
LWPOLYLINE
5
139
100
AcDbEntity
8
0
100
AcDbPolyline
90
4
70
1
43
0.0
10
7.5999999999999641
20
2.3999999999999844
10
2.3999999999999644
20
2.3999999999999844
10
2.3999999999999644
20
7.5999999999999801
10
7.5999999999999641
20
7.5999999999999801
0
LWPOLYLINE
5
140
100
AcDbEntity
8
0
100
AcDbPolyline
90
4
70
1
43
0.0
10
17.599999999999966
20
2.3999999999999844
10
12.399999999999965
20
2.3999999999999844
10
12.399999999999965
20
7.5999999999999801
10
17.599999999999966
20
7.5999999999999801
0
LWPOLYLINE
5
141
100
AcDbEntity
8
0
100
AcDbPolyline
90
4
70
1
43
0.0
10
267.59999999999997
20
32.399999999999984
10
262.39999999999998
20
32.399999999999984
10
262.39999999999998
20
37.59999999999998
10
267.59999999999997
20
37.59999999999998
0
LWPOLYLINE
5
142
100
AcDbEntity
8
0
100
AcDbPolyline
90
4
70
1
43
0.0
10
267.59999999999997
20
62.399999999999984
10
262.39999999999998
20
62.399999999999984
10
262.39999999999998
20
67.59999999999998
10
267.59999999999997
20
67.599999999999994
0
LWPOLYLINE
5
143
100
AcDbEntity
8
0
100
AcDbPolyline
90
4
70
1
43
0.0
10
227.59999999999997
20
42.399999999999984
10
222.39999999999995
20
42.399999999999984
10
222.39999999999995
20
47.59999999999998
10
227.59999999999997
20
47.59999999999998
0
LWPOLYLINE
5
144
100
AcDbEntity
8
0
100
AcDbPolyline
90
4
70
1
43
0.0
10
217.59999999999997
20
42.399999999999984
10
212.39999999999995
20
42.399999999999984
10
212.39999999999995
20
47.59999999999998
10
217.59999999999997
20
47.59999999999998
0
LWPOLYLINE
5
145
100
AcDbEntity
8
0
100
AcDbPolyline
90
4
70
1
43
0.0
10
117.59999999999997
20
32.399999999999984
10
112.39999999999996
20
32.399999999999984
10
112.39999999999996
20
37.59999999999998
10
117.59999999999997
20
37.59999999999998
0
LWPOLYLINE
5
146
100
AcDbEntity
8
0
100
AcDbPolyline
90
4
70
1
43
0.0
10
197.59999999999997
20
62.399999999999984
10
192.39999999999995
20
62.399999999999984
10
192.39999999999995
20
67.59999999999998
10
197.59999999999997
20
67.599999999999994
0
LWPOLYLINE
5
147
100
AcDbEntity
8
0
100
AcDbPolyline
90
4
70
1
43
0.0
10
217.59999999999997
20
62.399999999999984
10
212.39999999999995
20
62.399999999999984
10
212.39999999999995
20
67.59999999999998
10
217.59999999999997
20
67.599999999999994
0
LWPOLYLINE
5
148
100
AcDbEntity
8
0
100
AcDbPolyline
90
4
70
1
43
0.0
10
27.599999999999962
20
72.399999999999977
10
22.399999999999967
20
72.399999999999977
10
22.399999999999967
20
77.59999999999998
10
27.599999999999962
20
77.59999999999998
0
LWPOLYLINE
5
149
100
AcDbEntity
8
0
100
AcDbPolyline
90
4
70
1
43
0.0
10
187.59999999999997
20
62.399999999999984
10
182.39999999999995
20
62.399999999999984
10
182.39999999999995
20
67.59999999999998
10
187.59999999999997
20
67.599999999999994
0
LWPOLYLINE
5
150
100
AcDbEntity
8
0
100
AcDbPolyline
90
4
70
1
43
0.0
10
287.59999999999997
20
62.399999999999984
10
282.39999999999998
20
62.399999999999984
10
282.39999999999998
20
67.59999999999998
10
287.59999999999997
20
67.599999999999994
0
LWPOLYLINE
5
151
100
AcDbEntity
8
0
100
AcDbPolyline
90
4
70
1
43
0.0
10
277.59999999999997
20
62.399999999999984
10
272.39999999999998
20
62.399999999999984
10
272.39999999999998
20
67.59999999999998
10
277.59999999999997
20
67.599999999999994
0
LWPOLYLINE
5
152
100
AcDbEntity
8
0
100
AcDbPolyline
90
4
70
1
43
0.0
10
147.59999999999997
20
62.399999999999984
10
142.39999999999998
20
62.399999999999984
10
142.39999999999998
20
67.59999999999998
10
147.59999999999997
20
67.599999999999994
0
LWPOLYLINE
5
153
100
AcDbEntity
8
0
100
AcDbPolyline
90
4
70
1
43
0.0
10
7.5999999999999641
20
52.399999999999984
10
2.3999999999999644
20
52.399999999999984
10
2.3999999999999644
20
57.59999999999998
10
7.5999999999999641
20
57.59999999999998
0
LWPOLYLINE
5
154
100
AcDbEntity
8
0
100
AcDbPolyline
90
4
70
1
43
0.0
10
87.599999999999966
20
72.399999999999977
10
82.399999999999963
20
72.399999999999977
10
82.399999999999963
20
77.59999999999998
10
87.599999999999966
20
77.59999999999998
0
LWPOLYLINE
5
155
100
AcDbEntity
8
0
100
AcDbPolyline
90
4
70
1
43
0.0
10
127.59999999999997
20
62.399999999999984
10
122.39999999999996
20
62.399999999999984
10
122.39999999999996
20
67.59999999999998
10
127.59999999999997
20
67.599999999999994
0
LWPOLYLINE
5
156
100
AcDbEntity
8
0
100
AcDbPolyline
90
4
70
1
43
0.0
10
207.59999999999997
20
62.399999999999984
10
202.39999999999995
20
62.399999999999984
10
202.39999999999995
20
67.59999999999998
10
207.59999999999997
20
67.599999999999994
0
LWPOLYLINE
5
157
100
AcDbEntity
8
0
100
AcDbPolyline
90
4
70
1
43
0.0
10
137.59999999999997
20
62.399999999999984
10
132.39999999999998
20
62.399999999999984
10
132.39999999999998
20
67.59999999999998
10
137.59999999999997
20
67.599999999999994
0
LWPOLYLINE
5
158
100
AcDbEntity
8
0
100
AcDbPolyline
90
4
70
1
43
0.0
10
97.599999999999966
20
62.399999999999984
10
92.399999999999963
20
62.399999999999984
10
92.399999999999963
20
67.59999999999998
10
97.599999999999966
20
67.599999999999994
0
LWPOLYLINE
5
159
100
AcDbEntity
8
0
100
AcDbPolyline
90
4
70
1
43
0.0
10
27.599999999999962
20
52.399999999999984
10
22.399999999999967
20
52.399999999999984
10
22.399999999999967
20
57.59999999999998
10
27.599999999999962
20
57.59999999999998
0
LWPOLYLINE
5
160
100
AcDbEntity
8
0
100
AcDbPolyline
90
4
70
1
43
0.0
10
107.59999999999997
20
72.399999999999977
10
102.39999999999996
20
72.399999999999977
10
102.39999999999996
20
77.59999999999998
10
107.59999999999997
20
77.59999999999998
0
LWPOLYLINE
5
161
100
AcDbEntity
8
0
100
AcDbPolyline
90
4
70
1
43
0.0
10
17.599999999999966
20
52.399999999999984
10
12.399999999999965
20
52.399999999999984
10
12.399999999999965
20
57.59999999999998
10
17.599999999999966
20
57.59999999999998
0
LWPOLYLINE
5
162
100
AcDbEntity
8
0
100
AcDbPolyline
90
4
70
1
43
0.0
10
67.599999999999966
20
62.399999999999984
10
62.399999999999963
20
62.399999999999984
10
62.399999999999963
20
67.59999999999998
10
67.599999999999966
20
67.599999999999994
0
LWPOLYLINE
5
163
100
AcDbEntity
8
0
100
AcDbPolyline
90
4
70
1
43
0.0
10
117.59999999999997
20
72.399999999999977
10
112.39999999999996
20
72.399999999999977
10
112.39999999999996
20
77.59999999999998
10
117.59999999999997
20
77.59999999999998
0
LWPOLYLINE
5
164
100
AcDbEntity
8
0
100
AcDbPolyline
90
4
70
1
43
0.0
10
97.599999999999966
20
52.399999999999984
10
92.399999999999963
20
52.399999999999984
10
92.399999999999963
20
57.59999999999998
10
97.599999999999966
20
57.59999999999998
0
LWPOLYLINE
5
165
100
AcDbEntity
8
0
100
AcDbPolyline
90
4
70
1
43
0.0
10
37.599999999999966
20
62.399999999999984
10
32.399999999999963
20
62.399999999999984
10
32.399999999999963
20
67.59999999999998
10
37.599999999999966
20
67.599999999999994
0
LWPOLYLINE
5
166
100
AcDbEntity
8
0
100
AcDbPolyline
90
4
70
1
43
0.0
10
77.599999999999966
20
52.399999999999984
10
72.399999999999963
20
52.399999999999984
10
72.399999999999963
20
57.59999999999998
10
77.599999999999966
20
57.59999999999998
0
LWPOLYLINE
5
167
100
AcDbEntity
8
0
100
AcDbPolyline
90
4
70
1
43
0.0
10
147.59999999999997
20
72.399999999999977
10
142.39999999999998
20
72.399999999999977
10
142.39999999999998
20
77.59999999999998
10
147.59999999999997
20
77.59999999999998
0
LWPOLYLINE
5
168
100
AcDbEntity
8
0
100
AcDbPolyline
90
4
70
1
43
0.0
10
317.59999999999997
20
72.399999999999977
10
312.39999999999998
20
72.399999999999977
10
312.39999999999998
20
77.59999999999998
10
317.59999999999997
20
77.59999999999998
0
LWPOLYLINE
5
169
100
AcDbEntity
8
0
100
AcDbPolyline
90
4
70
1
43
0.0
10
267.59999999999997
20
72.399999999999977
10
262.39999999999998
20
72.399999999999977
10
262.39999999999998
20
77.59999999999998
10
267.59999999999997
20
77.59999999999998
0
LWPOLYLINE
5
170
100
AcDbEntity
8
0
100
AcDbPolyline
90
4
70
1
43
0.0
10
307.59999999999997
20
72.399999999999977
10
302.39999999999998
20
72.399999999999977
10
302.39999999999998
20
77.59999999999998
10
307.59999999999997
20
77.59999999999998
0
LWPOLYLINE
5
171
100
AcDbEntity
8
0
100
AcDbPolyline
90
4
70
1
43
0.0
10
187.59999999999997
20
72.399999999999977
10
182.39999999999995
20
72.399999999999977
10
182.39999999999995
20
77.59999999999998
10
187.59999999999997
20
77.59999999999998
0
LWPOLYLINE
5
172
100
AcDbEntity
8
0
100
AcDbPolyline
90
4
70
1
43
0.0
10
57.599999999999966
20
32.399999999999984
10
52.399999999999963
20
32.399999999999984
10
52.399999999999963
20
37.59999999999998
10
57.599999999999966
20
37.59999999999998
0
LWPOLYLINE
5
173
100
AcDbEntity
8
0
100
AcDbPolyline
90
4
70
1
43
0.0
10
297.59999999999997
20
42.399999999999984
10
292.39999999999998
20
42.399999999999984
10
292.39999999999998
20
47.59999999999998
10
297.59999999999997
20
47.59999999999998
0
LWPOLYLINE
5
174
100
AcDbEntity
8
0
100
AcDbPolyline
90
4
70
1
43
0.0
10
67.599999999999966
20
32.399999999999984
10
62.399999999999963
20
32.399999999999984
10
62.399999999999963
20
37.59999999999998
10
67.599999999999966
20
37.59999999999998
0
LWPOLYLINE
5
175
100
AcDbEntity
8
0
100
AcDbPolyline
90
4
70
1
43
0.0
10
317.59999999999997
20
42.399999999999984
10
312.39999999999998
20
42.399999999999984
10
312.39999999999998
20
47.59999999999998
10
317.59999999999997
20
47.59999999999998
0
LWPOLYLINE
5
176
100
AcDbEntity
8
0
100
AcDbPolyline
90
4
70
1
43
0.0
10
47.599999999999966
20
32.399999999999984
10
42.399999999999963
20
32.399999999999984
10
42.399999999999963
20
37.59999999999998
10
47.599999999999966
20
37.59999999999998
0
LWPOLYLINE
5
177
100
AcDbEntity
8
0
100
AcDbPolyline
90
4
70
1
43
0.0
10
77.599999999999966
20
32.399999999999984
10
72.399999999999963
20
32.399999999999984
10
72.399999999999963
20
37.59999999999998
10
77.599999999999966
20
37.59999999999998
0
LWPOLYLINE
5
178
100
AcDbEntity
8
0
100
AcDbPolyline
90
4
70
1
43
0.0
10
307.59999999999997
20
42.399999999999984
10
302.39999999999998
20
42.399999999999984
10
302.39999999999998
20
47.59999999999998
10
307.59999999999997
20
47.59999999999998
0
LWPOLYLINE
5
179
100
AcDbEntity
8
0
100
AcDbPolyline
90
4
70
1
43
0.0
10
277.59999999999997
20
42.399999999999984
10
272.39999999999998
20
42.399999999999984
10
272.39999999999998
20
47.59999999999998
10
277.59999999999997
20
47.59999999999998
0
LWPOLYLINE
5
180
100
AcDbEntity
8
0
100
AcDbPolyline
90
4
70
1
43
0.0
10
137.59999999999997
20
32.399999999999984
10
132.39999999999998
20
32.399999999999984
10
132.39999999999998
20
37.59999999999998
10
137.59999999999997
20
37.59999999999998
0
LWPOLYLINE
5
181
100
AcDbEntity
8
0
100
AcDbPolyline
90
4
70
1
43
0.0
10
287.59999999999997
20
42.399999999999984
10
282.39999999999998
20
42.399999999999984
10
282.39999999999998
20
47.59999999999998
10
287.59999999999997
20
47.59999999999998
0
LWPOLYLINE
5
182
100
AcDbEntity
8
0
100
AcDbPolyline
90
4
70
1
43
0.0
10
127.59999999999997
20
32.399999999999984
10
122.39999999999996
20
32.399999999999984
10
122.39999999999996
20
37.59999999999998
10
127.59999999999997
20
37.59999999999998
0
LWPOLYLINE
5
183
100
AcDbEntity
8
0
100
AcDbPolyline
90
4
70
1
43
0.0
10
237.59999999999997
20
52.399999999999984
10
232.39999999999995
20
52.399999999999984
10
232.39999999999995
20
57.59999999999998
10
237.59999999999997
20
57.59999999999998
0
LWPOLYLINE
5
184
100
AcDbEntity
8
0
100
AcDbPolyline
90
4
70
1
43
0.0
10
147.59999999999997
20
32.399999999999984
10
142.39999999999998
20
32.399999999999984
10
142.39999999999998
20
37.59999999999998
10
147.59999999999997
20
37.59999999999998
0
LWPOLYLINE
5
185
100
AcDbEntity
8
0
100
AcDbPolyline
90
4
70
1
43
0.0
10
247.59999999999997
20
52.399999999999984
10
242.39999999999995
20
52.399999999999984
10
242.39999999999995
20
57.59999999999998
10
247.59999999999997
20
57.59999999999998
0
LWPOLYLINE
5
186
100
AcDbEntity
8
0
100
AcDbPolyline
90
4
70
1
43
0.0
10
167.59999999999997
20
32.399999999999984
10
162.39999999999995
20
32.399999999999984
10
162.39999999999995
20
37.59999999999998
10
167.59999999999997
20
37.59999999999998
0
LWPOLYLINE
5
187
100
AcDbEntity
8
0
100
AcDbPolyline
90
4
70
1
43
0.0
10
227.59999999999997
20
52.399999999999984
10
222.39999999999995
20
52.399999999999984
10
222.39999999999995
20
57.59999999999998
10
227.59999999999997
20
57.59999999999998
0
LWPOLYLINE
5
188
100
AcDbEntity
8
0
100
AcDbPolyline
90
4
70
1
43
0.0
10
277.59999999999997
20
52.399999999999984
10
272.39999999999998
20
52.399999999999984
10
272.39999999999998
20
57.59999999999998
10
277.59999999999997
20
57.59999999999998
0
LWPOLYLINE
5
189
100
AcDbEntity
8
0
100
AcDbPolyline
90
4
70
1
43
0.0
10
157.59999999999997
20
32.399999999999984
10
152.39999999999998
20
32.399999999999984
10
152.39999999999998
20
37.59999999999998
10
157.59999999999997
20
37.59999999999998
0
LWPOLYLINE
5
190
100
AcDbEntity
8
0
100
AcDbPolyline
90
4
70
1
43
0.0
10
137.59999999999997
20
42.399999999999984
10
132.39999999999998
20
42.399999999999984
10
132.39999999999998
20
47.59999999999998
10
137.59999999999997
20
47.59999999999998
0
LWPOLYLINE
5
191
100
AcDbEntity
8
0
100
AcDbPolyline
90
4
70
1
43
0.0
10
127.59999999999997
20
42.399999999999984
10
122.39999999999996
20
42.399999999999984
10
122.39999999999996
20
47.59999999999998
10
127.59999999999997
20
47.59999999999998
0
LWPOLYLINE
5
192
100
AcDbEntity
8
0
100
AcDbPolyline
90
4
70
1
43
0.0
10
177.59999999999997
20
32.399999999999984
10
172.39999999999995
20
32.399999999999984
10
172.39999999999995
20
37.59999999999998
10
177.59999999999997
20
37.59999999999998
0
LWPOLYLINE
5
193
100
AcDbEntity
8
0
100
AcDbPolyline
90
4
70
1
43
0.0
10
97.599999999999966
20
42.399999999999984
10
92.399999999999963
20
42.399999999999984
10
92.399999999999963
20
47.59999999999998
10
97.599999999999966
20
47.59999999999998
0
LWPOLYLINE
5
194
100
AcDbEntity
8
0
100
AcDbPolyline
90
4
70
1
43
0.0
10
207.59999999999997
20
72.399999999999977
10
202.39999999999995
20
72.399999999999977
10
202.39999999999995
20
77.59999999999998
10
207.59999999999997
20
77.59999999999998
0
LWPOLYLINE
5
195
100
AcDbEntity
8
0
100
AcDbPolyline
90
4
70
1
43
0.0
10
227.59999999999997
20
72.399999999999977
10
222.39999999999995
20
72.399999999999977
10
222.39999999999995
20
77.59999999999998
10
227.59999999999997
20
77.59999999999998
0
LWPOLYLINE
5
196
100
AcDbEntity
8
0
100
AcDbPolyline
90
4
70
1
43
0.0
10
137.59999999999997
20
52.399999999999984
10
132.39999999999998
20
52.399999999999984
10
132.39999999999998
20
57.59999999999998
10
137.59999999999997
20
57.59999999999998
0
LWPOLYLINE
5
197
100
AcDbEntity
8
0
100
AcDbPolyline
90
4
70
1
43
0.0
10
147.59999999999997
20
52.399999999999984
10
142.39999999999998
20
52.399999999999984
10
142.39999999999998
20
57.59999999999998
10
147.59999999999997
20
57.59999999999998
0
LWPOLYLINE
5
198
100
AcDbEntity
8
0
100
AcDbPolyline
90
4
70
1
43
0.0
10
117.59999999999997
20
52.399999999999984
10
112.39999999999996
20
52.399999999999984
10
112.39999999999996
20
57.59999999999998
10
117.59999999999997
20
57.59999999999998
0
LWPOLYLINE
5
199
100
AcDbEntity
8
0
100
AcDbPolyline
90
4
70
1
43
0.0
10
167.59999999999997
20
52.399999999999984
10
162.39999999999995
20
52.399999999999984
10
162.39999999999995
20
57.59999999999998
10
167.59999999999997
20
57.59999999999998
0
LWPOLYLINE
5
200
100
AcDbEntity
8
0
100
AcDbPolyline
90
4
70
1
43
0.0
10
157.59999999999997
20
52.399999999999984
10
152.39999999999998
20
52.399999999999984
10
152.39999999999998
20
57.59999999999998
10
157.59999999999997
20
57.59999999999998
0
LWPOLYLINE
5
201
100
AcDbEntity
8
0
100
AcDbPolyline
90
4
70
1
43
0.0
10
277.59999999999997
20
72.399999999999977
10
272.39999999999998
20
72.399999999999977
10
272.39999999999998
20
77.59999999999998
10
277.59999999999997
20
77.59999999999998
0
LWPOLYLINE
5
202
100
AcDbEntity
8
0
100
AcDbPolyline
90
4
70
1
43
0.0
10
297.59999999999997
20
52.399999999999984
10
292.39999999999998
20
52.399999999999984
10
292.39999999999998
20
57.59999999999998
10
297.59999999999997
20
57.59999999999998
0
LWPOLYLINE
5
203
100
AcDbEntity
8
0
100
AcDbPolyline
90
4
70
1
43
0.0
10
237.59999999999997
20
72.399999999999977
10
232.39999999999995
20
72.399999999999977
10
232.39999999999995
20
77.59999999999998
10
237.59999999999997
20
77.59999999999998
0
LWPOLYLINE
5
204
100
AcDbEntity
8
0
100
AcDbPolyline
90
4
70
1
43
0.0
10
287.59999999999997
20
52.399999999999984
10
282.39999999999998
20
52.399999999999984
10
282.39999999999998
20
57.59999999999998
10
287.59999999999997
20
57.59999999999998
0
LWPOLYLINE
5
205
100
AcDbEntity
8
0
100
AcDbPolyline
90
4
70
1
43
0.0
10
7.5999999999999641
20
32.399999999999984
10
2.3999999999999644
20
32.399999999999984
10
2.3999999999999644
20
37.59999999999998
10
7.5999999999999641
20
37.59999999999998
0
LWPOLYLINE
5
206
100
AcDbEntity
8
0
100
AcDbPolyline
90
4
70
1
43
0.0
10
47.599999999999966
20
52.399999999999984
10
42.399999999999963
20
52.399999999999984
10
42.399999999999963
20
57.59999999999998
10
47.599999999999966
20
57.59999999999998
0
LWPOLYLINE
5
207
100
AcDbEntity
8
0
100
AcDbPolyline
90
4
70
1
43
0.0
10
287.59999999999997
20
32.399999999999984
10
282.39999999999998
20
32.399999999999984
10
282.39999999999998
20
37.59999999999998
10
287.59999999999997
20
37.59999999999998
0
LWPOLYLINE
5
208
100
AcDbEntity
8
0
100
AcDbPolyline
90
4
70
1
43
0.0
10
67.599999999999966
20
2.3999999999999844
10
62.399999999999963
20
2.3999999999999844
10
62.399999999999963
20
7.5999999999999801
10
67.599999999999966
20
7.5999999999999801
0
LWPOLYLINE
5
209
100
AcDbEntity
8
0
100
AcDbPolyline
90
4
70
1
43
0.0
10
287.59999999999997
20
2.3999999999999844
10
282.39999999999998
20
2.3999999999999844
10
282.39999999999998
20
7.5999999999999801
10
287.59999999999997
20
7.5999999999999801
0
LWPOLYLINE
5
210
100
AcDbEntity
8
0
100
AcDbPolyline
90
4
70
1
43
0.0
10
247.59999999999997
20
2.3999999999999844
10
242.39999999999995
20
2.3999999999999844
10
242.39999999999995
20
7.5999999999999801
10
247.59999999999997
20
7.5999999999999801
0
LWPOLYLINE
5
211
100
AcDbEntity
8
0
100
AcDbPolyline
90
4
70
1
43
0.0
10
97.599999999999966
20
2.3999999999999844
10
92.399999999999963
20
2.3999999999999844
10
92.399999999999963
20
7.5999999999999801
10
97.599999999999966
20
7.5999999999999801
0
LWPOLYLINE
5
212
100
AcDbEntity
8
0
100
AcDbPolyline
90
4
70
1
43
0.0
10
267.59999999999997
20
2.3999999999999844
10
262.39999999999998
20
2.3999999999999844
10
262.39999999999998
20
7.5999999999999801
10
267.59999999999997
20
7.5999999999999801
0
LWPOLYLINE
5
213
100
AcDbEntity
8
0
100
AcDbPolyline
90
4
70
1
43
0.0
10
67.599999999999966
20
72.399999999999977
10
62.399999999999963
20
72.399999999999977
10
62.399999999999963
20
77.59999999999998
10
67.599999999999966
20
77.59999999999998
0
LWPOLYLINE
5
214
100
AcDbEntity
8
0
100
AcDbPolyline
90
4
70
1
43
0.0
10
217.59999999999997
20
2.3999999999999844
10
212.39999999999995
20
2.3999999999999844
10
212.39999999999995
20
7.5999999999999801
10
217.59999999999997
20
7.5999999999999801
0
LWPOLYLINE
5
215
100
AcDbEntity
8
0
100
AcDbPolyline
90
4
70
1
43
0.0
10
297.59999999999997
20
2.3999999999999844
10
292.39999999999998
20
2.3999999999999844
10
292.39999999999998
20
7.5999999999999801
10
297.59999999999997
20
7.5999999999999801
0
LWPOLYLINE
5
216
100
AcDbEntity
8
0
100
AcDbPolyline
90
4
70
1
43
0.0
10
307.59999999999997
20
2.3999999999999844
10
302.39999999999998
20
2.3999999999999844
10
302.39999999999998
20
7.5999999999999801
10
307.59999999999997
20
7.5999999999999801
0
LWPOLYLINE
5
217
100
AcDbEntity
8
0
100
AcDbPolyline
90
4
70
1
43
0.0
10
107.59999999999997
20
2.3999999999999844
10
102.39999999999996
20
2.3999999999999844
10
102.39999999999996
20
7.5999999999999801
10
107.59999999999997
20
7.5999999999999801
0
LWPOLYLINE
5
218
100
AcDbEntity
8
0
100
AcDbPolyline
90
4
70
1
43
0.0
10
277.59999999999997
20
2.3999999999999844
10
272.39999999999998
20
2.3999999999999844
10
272.39999999999998
20
7.5999999999999801
10
277.59999999999997
20
7.5999999999999801
0
LWPOLYLINE
5
219
100
AcDbEntity
8
0
100
AcDbPolyline
90
4
70
1
43
0.0
10
87.599999999999966
20
2.3999999999999844
10
82.399999999999963
20
2.3999999999999844
10
82.399999999999963
20
7.5999999999999801
10
87.599999999999966
20
7.5999999999999801
0
LWPOLYLINE
5
220
100
AcDbEntity
8
0
100
AcDbPolyline
90
4
70
1
43
0.0
10
317.59999999999997
20
2.3999999999999844
10
312.39999999999998
20
2.3999999999999844
10
312.39999999999998
20
7.5999999999999801
10
317.59999999999997
20
7.5999999999999801
0
LWPOLYLINE
5
221
100
AcDbEntity
8
0
100
AcDbPolyline
90
4
70
1
43
0.0
10
317.59999999999997
20
62.399999999999984
10
312.39999999999998
20
62.399999999999984
10
312.39999999999998
20
67.59999999999998
10
317.59999999999997
20
67.599999999999994
0
LWPOLYLINE
5
222
100
AcDbEntity
8
0
100
AcDbPolyline
90
4
70
1
43
0.0
10
187.59999999999997
20
22.399999999999984
10
182.39999999999995
20
22.399999999999984
10
182.39999999999995
20
27.59999999999998
10
187.59999999999997
20
27.59999999999998
0
LWPOLYLINE
5
223
100
AcDbEntity
8
0
100
AcDbPolyline
90
4
70
1
43
0.0
10
57.599999999999966
20
72.399999999999977
10
52.399999999999963
20
72.399999999999977
10
52.399999999999963
20
77.59999999999998
10
57.599999999999966
20
77.59999999999998
0
LWPOLYLINE
5
224
100
AcDbEntity
8
0
100
AcDbPolyline
90
4
70
1
43
0.0
10
107.59999999999997
20
62.399999999999984
10
102.39999999999996
20
62.399999999999984
10
102.39999999999996
20
67.59999999999998
10
107.59999999999997
20
67.599999999999994
0
LWPOLYLINE
5
225
100
AcDbEntity
8
0
100
AcDbPolyline
90
4
70
1
43
0.0
10
57.599999999999966
20
62.399999999999984
10
52.399999999999963
20
62.399999999999984
10
52.399999999999963
20
67.59999999999998
10
57.599999999999966
20
67.599999999999994
0
LWPOLYLINE
5
226
100
AcDbEntity
8
0
100
AcDbPolyline
90
4
70
1
43
0.0
10
87.599999999999966
20
32.399999999999984
10
82.399999999999963
20
32.399999999999984
10
82.399999999999963
20
37.59999999999998
10
87.599999999999966
20
37.59999999999998
0
LWPOLYLINE
5
227
100
AcDbEntity
8
0
100
AcDbPolyline
90
4
70
1
43
0.0
10
257.59999999999997
20
62.399999999999984
10
252.39999999999995
20
62.399999999999984
10
252.39999999999995
20
67.59999999999998
10
257.59999999999997
20
67.599999999999994
0
LWPOLYLINE
5
228
100
AcDbEntity
8
0
100
AcDbPolyline
90
4
70
1
43
0.0
10
237.59999999999997
20
62.399999999999984
10
232.39999999999995
20
62.399999999999984
10
232.39999999999995
20
67.59999999999998
10
237.59999999999997
20
67.599999999999994
0
LWPOLYLINE
5
229
100
AcDbEntity
8
0
100
AcDbPolyline
90
4
70
1
43
0.0
10
267.59999999999997
20
42.399999999999984
10
262.39999999999998
20
42.399999999999984
10
262.39999999999998
20
47.59999999999998
10
267.59999999999997
20
47.59999999999998
0
LWPOLYLINE
5
230
100
AcDbEntity
8
0
100
AcDbPolyline
90
4
70
1
43
0.0
10
17.599999999999966
20
72.399999999999977
10
12.399999999999965
20
72.399999999999977
10
12.399999999999965
20
77.59999999999998
10
17.599999999999966
20
77.59999999999998
0
LWPOLYLINE
5
231
100
AcDbEntity
8
0
100
AcDbPolyline
90
4
70
1
43
0.0
10
227.59999999999997
20
62.399999999999984
10
222.39999999999995
20
62.399999999999984
10
222.39999999999995
20
67.59999999999998
10
227.59999999999997
20
67.599999999999994
0
LWPOLYLINE
5
232
100
AcDbEntity
8
0
100
AcDbPolyline
90
4
70
1
43
0.0
10
247.59999999999997
20
62.399999999999984
10
242.39999999999995
20
62.399999999999984
10
242.39999999999995
20
67.59999999999998
10
247.59999999999997
20
67.599999999999994
0
LWPOLYLINE
5
233
100
AcDbEntity
8
0
100
AcDbPolyline
90
4
70
1
43
0.0
10
97.599999999999966
20
32.399999999999984
10
92.399999999999963
20
32.399999999999984
10
92.399999999999963
20
37.59999999999998
10
97.599999999999966
20
37.59999999999998
0
LWPOLYLINE
5
234
100
AcDbEntity
8
0
100
AcDbPolyline
90
4
70
1
43
0.0
10
257.59999999999997
20
42.399999999999984
10
252.39999999999995
20
42.399999999999984
10
252.39999999999995
20
47.59999999999998
10
257.59999999999997
20
47.59999999999998
0
LWPOLYLINE
5
235
100
AcDbEntity
8
0
100
AcDbPolyline
90
4
70
1
43
0.0
10
257.59999999999997
20
52.399999999999984
10
252.39999999999995
20
52.399999999999984
10
252.39999999999995
20
57.59999999999998
10
257.59999999999997
20
57.59999999999998
0
LWPOLYLINE
5
236
100
AcDbEntity
8
0
100
AcDbPolyline
90
4
70
1
43
0.0
10
247.59999999999997
20
42.399999999999984
10
242.39999999999995
20
42.399999999999984
10
242.39999999999995
20
47.59999999999998
10
247.59999999999997
20
47.59999999999998
0
LWPOLYLINE
5
237
100
AcDbEntity
8
0
100
AcDbPolyline
90
4
70
1
43
0.0
10
267.59999999999997
20
52.399999999999984
10
262.39999999999998
20
52.399999999999984
10
262.39999999999998
20
57.59999999999998
10
267.59999999999997
20
57.59999999999998
0
LWPOLYLINE
5
238
100
AcDbEntity
8
0
100
AcDbPolyline
90
4
70
1
43
0.0
10
237.59999999999997
20
42.399999999999984
10
232.39999999999995
20
42.399999999999984
10
232.39999999999995
20
47.59999999999998
10
237.59999999999997
20
47.59999999999998
0
LWPOLYLINE
5
239
100
AcDbEntity
8
0
100
AcDbPolyline
90
4
70
1
43
0.0
10
117.59999999999997
20
62.399999999999984
10
112.39999999999996
20
62.399999999999984
10
112.39999999999996
20
67.59999999999998
10
117.59999999999997
20
67.599999999999994
0
LWPOLYLINE
5
240
100
AcDbEntity
8
0
100
AcDbPolyline
90
4
70
1
43
0.0
10
77.599999999999966
20
62.399999999999984
10
72.399999999999963
20
62.399999999999984
10
72.399999999999963
20
67.59999999999998
10
77.599999999999966
20
67.599999999999994
0
LWPOLYLINE
5
241
100
AcDbEntity
8
0
100
AcDbPolyline
90
4
70
1
43
0.0
10
97.599999999999966
20
72.399999999999977
10
92.399999999999963
20
72.399999999999977
10
92.399999999999963
20
77.59999999999998
10
97.599999999999966
20
77.59999999999998
0
LWPOLYLINE
5
242
100
AcDbEntity
8
0
100
AcDbPolyline
90
4
70
1
43
0.0
10
167.59999999999997
20
72.399999999999977
10
162.39999999999995
20
72.399999999999977
10
162.39999999999995
20
77.59999999999998
10
167.59999999999997
20
77.59999999999998
0
LWPOLYLINE
5
243
100
AcDbEntity
8
0
100
AcDbPolyline
90
4
70
1
43
0.0
10
297.59999999999997
20
72.399999999999977
10
292.39999999999998
20
72.399999999999977
10
292.39999999999998
20
77.59999999999998
10
297.59999999999997
20
77.59999999999998
0
LWPOLYLINE
5
244
100
AcDbEntity
8
0
100
AcDbPolyline
90
4
70
1
43
0.0
10
247.59999999999997
20
72.399999999999977
10
242.39999999999995
20
72.399999999999977
10
242.39999999999995
20
77.59999999999998
10
247.59999999999997
20
77.59999999999998
0
LWPOLYLINE
5
245
100
AcDbEntity
8
0
100
AcDbPolyline
90
4
70
1
43
0.0
10
207.59999999999997
20
32.399999999999984
10
202.39999999999995
20
32.399999999999984
10
202.39999999999995
20
37.59999999999998
10
207.59999999999997
20
37.59999999999998
0
LWPOLYLINE
5
246
100
AcDbEntity
8
0
100
AcDbPolyline
90
4
70
1
43
0.0
10
27.599999999999962
20
62.399999999999984
10
22.399999999999967
20
62.399999999999984
10
22.399999999999967
20
67.59999999999998
10
27.599999999999962
20
67.599999999999994
0
LWPOLYLINE
5
247
100
AcDbEntity
8
0
100
AcDbPolyline
90
4
70
1
43
0.0
10
67.599999999999966
20
52.399999999999984
10
62.399999999999963
20
52.399999999999984
10
62.399999999999963
20
57.59999999999998
10
67.599999999999966
20
57.59999999999998
0
LWPOLYLINE
5
248
100
AcDbEntity
8
0
100
AcDbPolyline
90
4
70
1
43
0.0
10
17.599999999999966
20
62.399999999999984
10
12.399999999999965
20
62.399999999999984
10
12.399999999999965
20
67.59999999999998
10
17.599999999999966
20
67.599999999999994
0
LWPOLYLINE
5
249
100
AcDbEntity
8
0
100
AcDbPolyline
90
4
70
1
43
0.0
10
307.59999999999997
20
62.399999999999984
10
302.39999999999998
20
62.399999999999984
10
302.39999999999998
20
67.59999999999998
10
307.59999999999997
20
67.599999999999994
0
LWPOLYLINE
5
250
100
AcDbEntity
8
0
100
AcDbPolyline
90
4
70
1
43
0.0
10
167.59999999999997
20
62.399999999999984
10
162.39999999999995
20
62.399999999999984
10
162.39999999999995
20
67.59999999999998
10
167.59999999999997
20
67.599999999999994
0
LWPOLYLINE
5
251
100
AcDbEntity
8
0
100
AcDbPolyline
90
4
70
1
43
0.0
10
37.599999999999966
20
42.399999999999984
10
32.399999999999963
20
42.399999999999984
10
32.399999999999963
20
47.59999999999998
10
37.599999999999966
20
47.59999999999998
0
LWPOLYLINE
5
252
100
AcDbEntity
8
0
100
AcDbPolyline
90
4
70
1
43
0.0
10
217.59999999999997
20
52.399999999999984
10
212.39999999999995
20
52.399999999999984
10
212.39999999999995
20
57.59999999999998
10
217.59999999999997
20
57.59999999999998
0
LWPOLYLINE
5
253
100
AcDbEntity
8
0
100
AcDbPolyline
90
4
70
1
43
0.0
10
197.59999999999997
20
52.399999999999984
10
192.39999999999995
20
52.399999999999984
10
192.39999999999995
20
57.59999999999998
10
197.59999999999997
20
57.59999999999998
0
LWPOLYLINE
5
254
100
AcDbEntity
8
0
100
AcDbPolyline
90
4
70
1
43
0.0
10
37.599999999999966
20
32.399999999999984
10
32.399999999999963
20
32.399999999999984
10
32.399999999999963
20
37.59999999999998
10
37.599999999999966
20
37.59999999999998
0
LWPOLYLINE
5
255
100
AcDbEntity
8
0
100
AcDbPolyline
90
4
70
1
43
0.0
10
87.599999999999966
20
62.399999999999984
10
82.399999999999963
20
62.399999999999984
10
82.399999999999963
20
67.59999999999998
10
87.599999999999966
20
67.599999999999994
0
LWPOLYLINE
5
256
100
AcDbEntity
8
0
100
AcDbPolyline
90
4
70
1
43
0.0
10
127.59999999999997
20
72.399999999999977
10
122.39999999999996
20
72.399999999999977
10
122.39999999999996
20
77.59999999999998
10
127.59999999999997
20
77.59999999999998
0
LWPOLYLINE
5
257
100
AcDbEntity
8
0
100
AcDbPolyline
90
4
70
1
43
0.0
10
187.59999999999997
20
42.399999999999984
10
182.39999999999995
20
42.399999999999984
10
182.39999999999995
20
47.59999999999998
10
187.59999999999997
20
47.59999999999998
0
LWPOLYLINE
5
258
100
AcDbEntity
8
0
100
AcDbPolyline
90
4
70
1
43
0.0
10
47.599999999999966
20
42.399999999999984
10
42.399999999999963
20
42.399999999999984
10
42.399999999999963
20
47.59999999999998
10
47.599999999999966
20
47.59999999999998
0
LWPOLYLINE
5
259
100
AcDbEntity
8
0
100
AcDbPolyline
90
4
70
1
43
0.0
10
227.59999999999997
20
32.399999999999984
10
222.39999999999995
20
32.399999999999984
10
222.39999999999995
20
37.59999999999998
10
227.59999999999997
20
37.59999999999998
0
LWPOLYLINE
5
260
100
AcDbEntity
8
0
100
AcDbPolyline
90
4
70
1
43
0.0
10
17.599999999999966
20
32.399999999999984
10
12.399999999999965
20
32.399999999999984
10
12.399999999999965
20
37.59999999999998
10
17.599999999999966
20
37.59999999999998
0
LWPOLYLINE
5
261
100
AcDbEntity
8
0
100
AcDbPolyline
90
4
70
1
43
0.0
10
247.59999999999997
20
32.399999999999984
10
242.39999999999995
20
32.399999999999984
10
242.39999999999995
20
37.59999999999998
10
247.59999999999997
20
37.59999999999998
0
LWPOLYLINE
5
262
100
AcDbEntity
8
0
100
AcDbPolyline
90
4
70
1
43
0.0
10
127.59999999999997
20
52.399999999999984
10
122.39999999999996
20
52.399999999999984
10
122.39999999999996
20
57.59999999999998
10
127.59999999999997
20
57.59999999999998
0
LWPOLYLINE
5
263
100
AcDbEntity
8
0
100
AcDbPolyline
90
4
70
1
43
0.0
10
37.599999999999966
20
52.399999999999984
10
32.399999999999963
20
52.399999999999984
10
32.399999999999963
20
57.59999999999998
10
37.599999999999966
20
57.59999999999998
0
LWPOLYLINE
5
264
100
AcDbEntity
8
0
100
AcDbPolyline
90
4
70
1
43
0.0
10
177.59999999999997
20
42.399999999999984
10
172.39999999999995
20
42.399999999999984
10
172.39999999999995
20
47.59999999999998
10
177.59999999999997
20
47.59999999999998
0
LWPOLYLINE
5
265
100
AcDbEntity
8
0
100
AcDbPolyline
90
4
70
1
43
0.0
10
237.59999999999997
20
32.399999999999984
10
232.39999999999995
20
32.399999999999984
10
232.39999999999995
20
37.59999999999998
10
237.59999999999997
20
37.59999999999998
0
LWPOLYLINE
5
266
100
AcDbEntity
8
0
100
AcDbPolyline
90
4
70
1
43
0.0
10
27.599999999999962
20
42.399999999999984
10
22.399999999999967
20
42.399999999999984
10
22.399999999999967
20
47.59999999999998
10
27.599999999999962
20
47.59999999999998
0
LWPOLYLINE
5
267
100
AcDbEntity
8
0
100
AcDbPolyline
90
4
70
1
43
0.0
10
157.59999999999997
20
42.399999999999984
10
152.39999999999998
20
42.399999999999984
10
152.39999999999998
20
47.59999999999998
10
157.59999999999997
20
47.59999999999998
0
LWPOLYLINE
5
268
100
AcDbEntity
8
0
100
AcDbPolyline
90
4
70
1
43
0.0
10
147.59999999999997
20
42.399999999999984
10
142.39999999999998
20
42.399999999999984
10
142.39999999999998
20
47.59999999999998
10
147.59999999999997
20
47.59999999999998
0
LWPOLYLINE
5
269
100
AcDbEntity
8
0
100
AcDbPolyline
90
4
70
1
43
0.0
10
187.59999999999997
20
52.399999999999984
10
182.39999999999995
20
52.399999999999984
10
182.39999999999995
20
57.59999999999998
10
187.59999999999997
20
57.59999999999998
0
LWPOLYLINE
5
270
100
AcDbEntity
8
0
100
AcDbPolyline
90
4
70
1
43
0.0
10
217.59999999999997
20
32.399999999999984
10
212.39999999999995
20
32.399999999999984
10
212.39999999999995
20
37.59999999999998
10
217.59999999999997
20
37.59999999999998
0
LWPOLYLINE
5
271
100
AcDbEntity
8
0
100
AcDbPolyline
90
4
70
1
43
0.0
10
187.59999999999997
20
32.399999999999984
10
182.39999999999995
20
32.399999999999984
10
182.39999999999995
20
37.59999999999998
10
187.59999999999997
20
37.59999999999998
0
LWPOLYLINE
5
272
100
AcDbEntity
8
0
100
AcDbPolyline
90
4
70
1
43
0.0
10
207.59999999999997
20
52.399999999999984
10
202.39999999999995
20
52.399999999999984
10
202.39999999999995
20
57.59999999999998
10
207.59999999999997
20
57.59999999999998
0
LWPOLYLINE
5
273
100
AcDbEntity
8
0
100
AcDbPolyline
90
4
70
1
43
0.0
10
167.59999999999997
20
42.399999999999984
10
162.39999999999995
20
42.399999999999984
10
162.39999999999995
20
47.59999999999998
10
167.59999999999997
20
47.59999999999998
0
LWPOLYLINE
5
274
100
AcDbEntity
8
0
100
AcDbPolyline
90
4
70
1
43
0.0
10
87.599999999999966
20
52.399999999999984
10
82.399999999999963
20
52.399999999999984
10
82.399999999999963
20
57.59999999999998
10
87.599999999999966
20
57.59999999999998
0
LWPOLYLINE
5
275
100
AcDbEntity
8
0
100
AcDbPolyline
90
4
70
1
43
0.0
10
197.59999999999997
20
42.399999999999984
10
192.39999999999995
20
42.399999999999984
10
192.39999999999995
20
47.59999999999998
10
197.59999999999997
20
47.59999999999998
0
LWPOLYLINE
5
276
100
AcDbEntity
8
0
100
AcDbPolyline
90
4
70
1
43
0.0
10
27.599999999999962
20
32.399999999999984
10
22.399999999999967
20
32.399999999999984
10
22.399999999999967
20
37.59999999999998
10
27.599999999999962
20
37.59999999999998
0
LWPOLYLINE
5
277
100
AcDbEntity
8
0
100
AcDbPolyline
90
4
70
1
43
0.0
10
57.599999999999966
20
52.399999999999984
10
52.399999999999963
20
52.399999999999984
10
52.399999999999963
20
57.59999999999998
10
57.599999999999966
20
57.59999999999998
0
LWPOLYLINE
5
278
100
AcDbEntity
8
0
100
AcDbPolyline
90
4
70
1
43
0.0
10
197.59999999999997
20
72.399999999999977
10
192.39999999999995
20
72.399999999999977
10
192.39999999999995
20
77.59999999999998
10
197.59999999999997
20
77.59999999999998
0
LWPOLYLINE
5
279
100
AcDbEntity
8
0
100
AcDbPolyline
90
4
70
1
43
0.0
10
197.59999999999997
20
32.399999999999984
10
192.39999999999995
20
32.399999999999984
10
192.39999999999995
20
37.59999999999998
10
197.59999999999997
20
37.59999999999998
0
LWPOLYLINE
5
280
100
AcDbEntity
8
0
100
AcDbPolyline
90
4
70
1
43
0.0
10
7.5999999999999641
20
62.399999999999984
10
2.3999999999999644
20
62.399999999999984
10
2.3999999999999644
20
67.59999999999998
10
7.5999999999999641
20
67.599999999999994
0
LWPOLYLINE
5
281
100
AcDbEntity
8
0
100
AcDbPolyline
90
4
70
1
43
0.0
10
177.59999999999997
20
72.399999999999977
10
172.39999999999995
20
72.399999999999977
10
172.39999999999995
20
77.59999999999998
10
177.59999999999997
20
77.59999999999998
0
LWPOLYLINE
5
282
100
AcDbEntity
8
0
100
AcDbPolyline
90
4
70
1
43
0.0
10
107.59999999999997
20
52.399999999999984
10
102.39999999999996
20
52.399999999999984
10
102.39999999999996
20
57.59999999999998
10
107.59999999999997
20
57.59999999999998
0
LWPOLYLINE
5
283
100
AcDbEntity
8
0
100
AcDbPolyline
90
4
70
1
43
0.0
10
217.59999999999997
20
72.399999999999977
10
212.39999999999995
20
72.399999999999977
10
212.39999999999995
20
77.59999999999998
10
217.59999999999997
20
77.59999999999998
0
LWPOLYLINE
5
284
100
AcDbEntity
8
0
100
AcDbPolyline
90
4
70
1
43
0.0
10
157.59999999999997
20
72.399999999999977
10
152.39999999999998
20
72.399999999999977
10
152.39999999999998
20
77.59999999999998
10
157.59999999999997
20
77.59999999999998
0
LWPOLYLINE
5
285
100
AcDbEntity
8
0
100
AcDbPolyline
90
4
70
1
43
0.0
10
47.599999999999966
20
62.399999999999984
10
42.399999999999963
20
62.399999999999984
10
42.399999999999963
20
67.59999999999998
10
47.599999999999966
20
67.599999999999994
0
LWPOLYLINE
5
286
100
AcDbEntity
8
0
100
AcDbPolyline
90
4
70
1
43
0.0
10
257.59999999999997
20
72.399999999999977
10
252.39999999999995
20
72.399999999999977
10
252.39999999999995
20
77.59999999999998
10
257.59999999999997
20
77.59999999999998
0
LWPOLYLINE
5
287
100
AcDbEntity
8
0
100
AcDbPolyline
90
4
70
1
43
0.0
10
287.59999999999997
20
72.399999999999977
10
282.39999999999998
20
72.399999999999977
10
282.39999999999998
20
77.59999999999998
10
287.59999999999997
20
77.59999999999998
0
LWPOLYLINE
5
288
100
AcDbEntity
8
0
100
AcDbPolyline
90
4
70
1
43
0.0
10
187.59999999999997
20
2.3999999999999844
10
182.39999999999995
20
2.3999999999999844
10
182.39999999999995
20
7.5999999999999801
10
187.59999999999997
20
7.5999999999999801
0
LWPOLYLINE
5
289
100
AcDbEntity
8
0
100
AcDbPolyline
90
4
70
1
43
0.0
10
167.59999999999997
20
22.399999999999984
10
162.39999999999995
20
22.399999999999984
10
162.39999999999995
20
27.59999999999998
10
167.59999999999997
20
27.59999999999998
0
LWPOLYLINE
5
290
100
AcDbEntity
8
0
100
AcDbPolyline
90
4
70
1
43
0.0
10
157.59999999999997
20
22.399999999999984
10
152.39999999999998
20
22.399999999999984
10
152.39999999999998
20
27.59999999999998
10
157.59999999999997
20
27.59999999999998
0
LWPOLYLINE
5
291
100
AcDbEntity
8
0
100
AcDbPolyline
90
4
70
1
43
0.0
10
157.59999999999997
20
2.3999999999999844
10
152.39999999999998
20
2.3999999999999844
10
152.39999999999998
20
7.5999999999999801
10
157.59999999999997
20
7.5999999999999801
0
LWPOLYLINE
5
292
100
AcDbEntity
8
0
100
AcDbPolyline
90
4
70
1
43
0.0
10
107.59999999999997
20
12.399999999999984
10
102.39999999999996
20
12.399999999999984
10
102.39999999999996
20
17.59999999999998
10
107.59999999999997
20
17.59999999999998
0
LWPOLYLINE
5
293
100
AcDbEntity
8
0
100
AcDbPolyline
90
4
70
1
43
0.0
10
97.599999999999966
20
12.399999999999984
10
92.399999999999963
20
12.399999999999984
10
92.399999999999963
20
17.59999999999998
10
97.599999999999966
20
17.59999999999998
0
LWPOLYLINE
5
294
100
AcDbEntity
8
0
100
AcDbPolyline
90
4
70
1
43
0.0
10
67.599999999999966
20
12.399999999999984
10
62.399999999999963
20
12.399999999999984
10
62.399999999999963
20
17.59999999999998
10
67.599999999999966
20
17.59999999999998
0
LWPOLYLINE
5
295
100
AcDbEntity
8
0
100
AcDbPolyline
90
4
70
1
43
0.0
10
77.599999999999966
20
12.399999999999984
10
72.399999999999963
20
12.399999999999984
10
72.399999999999963
20
17.59999999999998
10
77.599999999999966
20
17.59999999999998
0
LWPOLYLINE
5
296
100
AcDbEntity
8
0
100
AcDbPolyline
90
4
70
1
43
0.0
10
57.599999999999966
20
12.399999999999984
10
52.399999999999963
20
12.399999999999984
10
52.399999999999963
20
17.59999999999998
10
57.599999999999966
20
17.59999999999998
0
LWPOLYLINE
5
297
100
AcDbEntity
8
0
100
AcDbPolyline
90
4
70
1
43
0.0
10
57.599999999999966
20
22.399999999999984
10
52.399999999999963
20
22.399999999999984
10
52.399999999999963
20
27.59999999999998
10
57.599999999999966
20
27.59999999999998
0
LWPOLYLINE
5
298
100
AcDbEntity
8
0
100
AcDbPolyline
90
4
70
1
43
0.0
10
197.59999999999997
20
12.399999999999984
10
192.39999999999995
20
12.399999999999984
10
192.39999999999995
20
17.59999999999998
10
197.59999999999997
20
17.59999999999998
0
LWPOLYLINE
5
299
100
AcDbEntity
8
0
100
AcDbPolyline
90
4
70
1
43
0.0
10
87.599999999999966
20
12.399999999999984
10
82.399999999999963
20
12.399999999999984
10
82.399999999999963
20
17.59999999999998
10
87.599999999999966
20
17.59999999999998
0
LWPOLYLINE
5
300
100
AcDbEntity
8
0
100
AcDbPolyline
90
4
70
1
43
0.0
10
27.599999999999962
20
12.399999999999984
10
22.399999999999967
20
12.399999999999984
10
22.399999999999967
20
17.59999999999998
10
27.599999999999962
20
17.59999999999998
0
LWPOLYLINE
5
301
100
AcDbEntity
8
0
100
AcDbPolyline
90
4
70
1
43
0.0
10
207.59999999999997
20
12.399999999999984
10
202.39999999999995
20
12.399999999999984
10
202.39999999999995
20
17.59999999999998
10
207.59999999999997
20
17.59999999999998
0
LWPOLYLINE
5
302
100
AcDbEntity
8
0
100
AcDbPolyline
90
4
70
1
43
0.0
10
47.599999999999966
20
22.399999999999984
10
42.399999999999963
20
22.399999999999984
10
42.399999999999963
20
27.59999999999998
10
47.599999999999966
20
27.59999999999998
0
LWPOLYLINE
5
303
100
AcDbEntity
8
0
100
AcDbPolyline
90
4
70
1
43
0.0
10
7.5999999999999641
20
12.399999999999984
10
2.3999999999999644
20
12.399999999999984
10
2.3999999999999644
20
17.59999999999998
10
7.5999999999999641
20
17.59999999999998
0
LWPOLYLINE
5
304
100
AcDbEntity
8
0
100
AcDbPolyline
90
4
70
1
43
0.0
10
47.599999999999966
20
12.399999999999984
10
42.399999999999963
20
12.399999999999984
10
42.399999999999963
20
17.59999999999998
10
47.599999999999966
20
17.59999999999998
0
LWPOLYLINE
5
305
100
AcDbEntity
8
0
100
AcDbPolyline
90
4
70
1
43
0.0
10
17.599999999999966
20
12.399999999999984
10
12.399999999999965
20
12.399999999999984
10
12.399999999999965
20
17.59999999999998
10
17.599999999999966
20
17.59999999999998
0
LWPOLYLINE
5
306
100
AcDbEntity
8
0
100
AcDbPolyline
90
4
70
1
43
0.0
10
37.599999999999966
20
12.399999999999984
10
32.399999999999963
20
12.399999999999984
10
32.399999999999963
20
17.59999999999998
10
37.599999999999966
20
17.59999999999998
0
LWPOLYLINE
5
307
100
AcDbEntity
8
0
100
AcDbPolyline
90
4
70
1
43
0.0
10
317.59999999999997
20
22.399999999999984
10
312.39999999999998
20
22.399999999999984
10
312.39999999999998
20
27.59999999999998
10
317.59999999999997
20
27.59999999999998
0
LWPOLYLINE
5
308
100
AcDbEntity
8
0
100
AcDbPolyline
90
4
70
1
43
0.0
10
37.599999999999966
20
22.399999999999984
10
32.399999999999963
20
22.399999999999984
10
32.399999999999963
20
27.59999999999998
10
37.599999999999966
20
27.59999999999998
0
LWPOLYLINE
5
309
100
AcDbEntity
8
0
100
AcDbPolyline
90
4
70
1
43
0.0
10
227.59999999999997
20
12.399999999999984
10
222.39999999999995
20
12.399999999999984
10
222.39999999999995
20
17.59999999999998
10
227.59999999999997
20
17.59999999999998
0
LWPOLYLINE
5
310
100
AcDbEntity
8
0
100
AcDbPolyline
90
4
70
1
43
0.0
10
297.59999999999997
20
22.399999999999984
10
292.39999999999998
20
22.399999999999984
10
292.39999999999998
20
27.59999999999998
10
297.59999999999997
20
27.59999999999998
0
LWPOLYLINE
5
311
100
AcDbEntity
8
0
100
AcDbPolyline
90
4
70
1
43
0.0
10
247.59999999999997
20
12.399999999999984
10
242.39999999999995
20
12.399999999999984
10
242.39999999999995
20
17.59999999999998
10
247.59999999999997
20
17.59999999999998
0
LWPOLYLINE
5
312
100
AcDbEntity
8
0
100
AcDbPolyline
90
4
70
1
43
0.0
10
307.59999999999997
20
22.399999999999984
10
302.39999999999998
20
22.399999999999984
10
302.39999999999998
20
27.59999999999998
10
307.59999999999997
20
27.59999999999998
0
LWPOLYLINE
5
313
100
AcDbEntity
8
0
100
AcDbPolyline
90
4
70
1
43
0.0
10
27.599999999999962
20
22.399999999999984
10
22.399999999999967
20
22.399999999999984
10
22.399999999999967
20
27.59999999999998
10
27.599999999999962
20
27.59999999999998
0
LWPOLYLINE
5
314
100
AcDbEntity
8
0
100
AcDbPolyline
90
4
70
1
43
0.0
10
267.59999999999997
20
22.399999999999984
10
262.39999999999998
20
22.399999999999984
10
262.39999999999998
20
27.59999999999998
10
267.59999999999997
20
27.59999999999998
0
LWPOLYLINE
5
315
100
AcDbEntity
8
0
100
AcDbPolyline
90
4
70
1
43
0.0
10
237.59999999999997
20
12.399999999999984
10
232.39999999999995
20
12.399999999999984
10
232.39999999999995
20
17.59999999999998
10
237.59999999999997
20
17.59999999999998
0
LWPOLYLINE
5
316
100
AcDbEntity
8
0
100
AcDbPolyline
90
4
70
1
43
0.0
10
257.59999999999997
20
22.399999999999984
10
252.39999999999995
20
22.399999999999984
10
252.39999999999995
20
27.59999999999998
10
257.59999999999997
20
27.59999999999998
0
LWPOLYLINE
5
317
100
AcDbEntity
8
0
100
AcDbPolyline
90
4
70
1
43
0.0
10
257.59999999999997
20
12.399999999999984
10
252.39999999999995
20
12.399999999999984
10
252.39999999999995
20
17.59999999999998
10
257.59999999999997
20
17.59999999999998
0
LWPOLYLINE
5
318
100
AcDbEntity
8
0
100
AcDbPolyline
90
4
70
1
43
0.0
10
277.59999999999997
20
22.399999999999984
10
272.39999999999998
20
22.399999999999984
10
272.39999999999998
20
27.59999999999998
10
277.59999999999997
20
27.59999999999998
0
LWPOLYLINE
5
319
100
AcDbEntity
8
0
100
AcDbPolyline
90
4
70
1
43
0.0
10
237.59999999999997
20
22.399999999999984
10
232.39999999999995
20
22.399999999999984
10
232.39999999999995
20
27.59999999999998
10
237.59999999999997
20
27.59999999999998
0
LWPOLYLINE
5
320
100
AcDbEntity
8
0
100
AcDbPolyline
90
4
70
1
43
0.0
10
247.59999999999997
20
22.399999999999984
10
242.39999999999995
20
22.399999999999984
10
242.39999999999995
20
27.59999999999998
10
247.59999999999997
20
27.59999999999998
0
LWPOLYLINE
5
321
100
AcDbEntity
8
0
100
AcDbPolyline
90
4
70
1
43
0.0
10
287.59999999999997
20
12.399999999999984
10
282.39999999999998
20
12.399999999999984
10
282.39999999999998
20
17.59999999999998
10
287.59999999999997
20
17.59999999999998
0
LWPOLYLINE
5
322
100
AcDbEntity
8
0
100
AcDbPolyline
90
4
70
1
43
0.0
10
277.59999999999997
20
12.399999999999984
10
272.39999999999998
20
12.399999999999984
10
272.39999999999998
20
17.59999999999998
10
277.59999999999997
20
17.59999999999998
0
LWPOLYLINE
5
323
100
AcDbEntity
8
0
100
AcDbPolyline
90
4
70
1
43
0.0
10
287.59999999999997
20
22.399999999999984
10
282.39999999999998
20
22.399999999999984
10
282.39999999999998
20
27.59999999999998
10
287.59999999999997
20
27.59999999999998
0
LWPOLYLINE
5
324
100
AcDbEntity
8
0
100
AcDbPolyline
90
4
70
1
43
0.0
10
227.59999999999997
20
22.399999999999984
10
222.39999999999995
20
22.399999999999984
10
222.39999999999995
20
27.59999999999998
10
227.59999999999997
20
27.59999999999998
0
LWPOLYLINE
5
325
100
AcDbEntity
8
0
100
AcDbPolyline
90
4
70
1
43
0.0
10
17.599999999999966
20
22.399999999999984
10
12.399999999999965
20
22.399999999999984
10
12.399999999999965
20
27.59999999999998
10
17.599999999999966
20
27.59999999999998
0
LWPOLYLINE
5
326
100
AcDbEntity
8
0
100
AcDbPolyline
90
4
70
1
43
0.0
10
87.599999999999966
20
42.399999999999984
10
82.399999999999963
20
42.399999999999984
10
82.399999999999963
20
47.59999999999998
10
87.599999999999966
20
47.59999999999998
0
LWPOLYLINE
5
327
100
AcDbEntity
8
0
100
AcDbPolyline
90
4
70
1
43
0.0
10
67.599999999999966
20
42.399999999999984
10
62.399999999999963
20
42.399999999999984
10
62.399999999999963
20
47.59999999999998
10
67.599999999999966
20
47.59999999999998
0
LWPOLYLINE
5
328
100
AcDbEntity
8
0
100
AcDbPolyline
90
4
70
1
43
0.0
10
257.59999999999997
20
32.399999999999984
10
252.39999999999995
20
32.399999999999984
10
252.39999999999995
20
37.59999999999998
10
257.59999999999997
20
37.59999999999998
0
LWPOLYLINE
5
329
100
AcDbEntity
8
0
100
AcDbPolyline
90
4
70
1
43
0.0
10
107.59999999999997
20
42.399999999999984
10
102.39999999999996
20
42.399999999999984
10
102.39999999999996
20
47.59999999999998
10
107.59999999999997
20
47.59999999999998
0
LWPOLYLINE
5
330
100
AcDbEntity
8
0
100
AcDbPolyline
90
4
70
1
43
0.0
10
117.59999999999997
20
42.399999999999984
10
112.39999999999996
20
42.399999999999984
10
112.39999999999996
20
47.59999999999998
10
117.59999999999997
20
47.59999999999998
0
LWPOLYLINE
5
331
100
AcDbEntity
8
0
100
AcDbPolyline
90
4
70
1
43
0.0
10
307.59999999999997
20
52.399999999999984
10
302.39999999999998
20
52.399999999999984
10
302.39999999999998
20
57.59999999999998
10
307.59999999999997
20
57.59999999999998
0
LWPOLYLINE
5
332
100
AcDbEntity
8
0
100
AcDbPolyline
90
4
70
1
43
0.0
10
77.599999999999966
20
42.399999999999984
10
72.399999999999963
20
42.399999999999984
10
72.399999999999963
20
47.59999999999998
10
77.599999999999966
20
47.59999999999998
0
LWPOLYLINE
5
333
100
AcDbEntity
8
0
100
AcDbPolyline
90
4
70
1
43
0.0
10
7.5999999999999641
20
42.399999999999984
10
2.3999999999999644
20
42.399999999999984
10
2.3999999999999644
20
47.59999999999998
10
7.5999999999999641
20
47.59999999999998
0
LWPOLYLINE
5
334
100
AcDbEntity
8
0
100
AcDbPolyline
90
4
70
1
43
0.0
10
127.59999999999997
20
12.399999999999984
10
122.39999999999996
20
12.399999999999984
10
122.39999999999996
20
17.59999999999998
10
127.59999999999997
20
17.59999999999998
0
LWPOLYLINE
5
335
100
AcDbEntity
8
0
100
AcDbPolyline
90
4
70
1
43
0.0
10
57.599999999999966
20
42.399999999999984
10
52.399999999999963
20
42.399999999999984
10
52.399999999999963
20
47.59999999999998
10
57.599999999999966
20
47.59999999999998
0
LWPOLYLINE
5
336
100
AcDbEntity
8
0
100
AcDbPolyline
90
4
70
1
43
0.0
10
17.599999999999966
20
42.399999999999984
10
12.399999999999965
20
42.399999999999984
10
12.399999999999965
20
47.59999999999998
10
17.599999999999966
20
47.59999999999998
0
LWPOLYLINE
5
337
100
AcDbEntity
8
0
100
AcDbPolyline
90
4
70
1
43
0.0
10
147.59999999999997
20
12.399999999999984
10
142.39999999999998
20
12.399999999999984
10
142.39999999999998
20
17.59999999999998
10
147.59999999999997
20
17.59999999999998
0
LWPOLYLINE
5
338
100
AcDbEntity
8
0
100
AcDbPolyline
90
4
70
1
43
0.0
10
117.59999999999997
20
12.399999999999984
10
112.39999999999996
20
12.399999999999984
10
112.39999999999996
20
17.59999999999998
10
117.59999999999997
20
17.59999999999998
0
LWPOLYLINE
5
339
100
AcDbEntity
8
0
100
AcDbPolyline
90
4
70
1
43
0.0
10
167.59999999999997
20
12.399999999999984
10
162.39999999999995
20
12.399999999999984
10
162.39999999999995
20
17.59999999999998
10
167.59999999999997
20
17.59999999999998
0
LWPOLYLINE
5
340
100
AcDbEntity
8
0
100
AcDbPolyline
90
4
70
1
43
0.0
10
277.59999999999997
20
32.399999999999984
10
272.39999999999998
20
32.399999999999984
10
272.39999999999998
20
37.59999999999998
10
277.59999999999997
20
37.59999999999998
0
LWPOLYLINE
5
341
100
AcDbEntity
8
0
100
AcDbPolyline
90
4
70
1
43
0.0
10
77.599999999999966
20
22.399999999999984
10
72.399999999999963
20
22.399999999999984
10
72.399999999999963
20
27.59999999999998
10
77.599999999999966
20
27.59999999999998
0
LWPOLYLINE
5
342
100
AcDbEntity
8
0
100
AcDbPolyline
90
4
70
1
43
0.0
10
157.59999999999997
20
12.399999999999984
10
152.39999999999998
20
12.399999999999984
10
152.39999999999998
20
17.59999999999998
10
157.59999999999997
20
17.59999999999998
0
LWPOLYLINE
5
343
100
AcDbEntity
8
0
100
AcDbPolyline
90
4
70
1
43
0.0
10
137.59999999999997
20
12.399999999999984
10
132.39999999999998
20
12.399999999999984
10
132.39999999999998
20
17.59999999999998
10
137.59999999999997
20
17.59999999999998
0
LWPOLYLINE
5
344
100
AcDbEntity
8
0
100
AcDbPolyline
90
4
70
1
43
0.0
10
187.59999999999997
20
12.399999999999984
10
182.39999999999995
20
12.399999999999984
10
182.39999999999995
20
17.59999999999998
10
187.59999999999997
20
17.59999999999998
0
LWPOLYLINE
5
345
100
AcDbEntity
8
0
100
AcDbPolyline
90
4
70
1
43
0.0
10
177.59999999999997
20
12.399999999999984
10
172.39999999999995
20
12.399999999999984
10
172.39999999999995
20
17.59999999999998
10
177.59999999999997
20
17.59999999999998
0
LWPOLYLINE
5
346
100
AcDbEntity
8
0
100
AcDbPolyline
90
4
70
1
43
0.0
10
67.599999999999966
20
22.399999999999984
10
62.399999999999963
20
22.399999999999984
10
62.399999999999963
20
27.59999999999998
10
67.599999999999966
20
27.59999999999998
0
LWPOLYLINE
5
347
100
AcDbEntity
8
0
100
AcDbPolyline
90
4
70
1
43
0.0
10
267.59999999999997
20
12.399999999999984
10
262.39999999999998
20
12.399999999999984
10
262.39999999999998
20
17.59999999999998
10
267.59999999999997
20
17.59999999999998
0
LWPOLYLINE
5
348
100
AcDbEntity
8
0
100
AcDbPolyline
90
4
70
1
43
0.0
10
307.59999999999997
20
12.399999999999984
10
302.39999999999998
20
12.399999999999984
10
302.39999999999998
20
17.59999999999998
10
307.59999999999997
20
17.59999999999998
0
LWPOLYLINE
5
349
100
AcDbEntity
8
0
100
AcDbPolyline
90
4
70
1
43
0.0
10
7.5999999999999641
20
22.399999999999984
10
2.3999999999999644
20
22.399999999999984
10
2.3999999999999644
20
27.59999999999998
10
7.5999999999999641
20
27.59999999999998
0
LWPOLYLINE
5
350
100
AcDbEntity
8
0
100
AcDbPolyline
90
4
70
1
43
0.0
10
217.59999999999997
20
12.399999999999984
10
212.39999999999995
20
12.399999999999984
10
212.39999999999995
20
17.59999999999998
10
217.59999999999997
20
17.59999999999998
0
LWPOLYLINE
5
351
100
AcDbEntity
8
0
100
AcDbPolyline
90
4
70
1
43
0.0
10
207.59999999999997
20
42.399999999999984
10
202.39999999999995
20
42.399999999999984
10
202.39999999999995
20
47.59999999999998
10
207.59999999999997
20
47.59999999999998
0
LWPOLYLINE
5
352
100
AcDbEntity
8
0
100
AcDbPolyline
90
4
70
1
43
0.0
10
177.59999999999997
20
52.399999999999984
10
172.39999999999995
20
52.399999999999984
10
172.39999999999995
20
57.59999999999998
10
177.59999999999997
20
57.59999999999998
0
LWPOLYLINE
5
353
100
AcDbEntity
8
0
100
AcDbPolyline
90
4
70
1
43
0.0
10
317.59999999999997
20
12.399999999999984
10
312.39999999999998
20
12.399999999999984
10
312.39999999999998
20
17.59999999999998
10
317.59999999999997
20
17.59999999999998
0
LWPOLYLINE
5
354
100
AcDbEntity
8
0
100
AcDbPolyline
90
4
70
1
43
0.0
10
217.59999999999997
20
22.399999999999984
10
212.39999999999995
20
22.399999999999984
10
212.39999999999995
20
27.59999999999998
10
217.59999999999997
20
27.59999999999998
0
LWPOLYLINE
5
355
100
AcDbEntity
8
0
100
AcDbPolyline
90
4
70
1
43
0.0
10
317.59999999999997
20
32.399999999999984
10
312.39999999999998
20
32.399999999999984
10
312.39999999999998
20
37.59999999999998
10
317.59999999999997
20
37.59999999999998
0
LWPOLYLINE
5
356
100
AcDbEntity
8
0
100
AcDbPolyline
90
60
70
1
43
0.0
10
259.99999999999994
20
85.999999999999972
10
259.99999999999994
20
79.999999999999986
10
209.99999999999997
20
79.999999999999986
10
209.99999999999997
20
85.999999999999972
10
109.99999999999997
20
85.999999999999972
10
109.99999999999997
20
79.999999999999986
10
59.999999999999964
20
79.999999999999986
10
59.999999999999964
20
85.999999999999972
10
9.9999999999999645
20
85.999999999999972
10
9.9999999999999645
20
82.999999999999986
10
-3.000000000000036
20
82.999999999999986
10
-3.0000000000000231
20
69.999999999999986
10
-6.0000000000000426
20
69.999999999999986
10
-6.0000000000000426
20
59.999999999999986
10
-3.0000000000000231
20
59.999999999999993
10
-3.0000000000000231
20
49.999999999999993
10
-6.0000000000000426
20
49.999999999999986
10
-6.0000000000000426
20
39.999999999999986
10
-3.0000000000000231
20
39.999999999999993
10
-3.0000000000000231
20
29.999999999999993
10
-6.0000000000000426
20
29.999999999999982
10
-6.0000000000000426
20
19.999999999999982
10
-3.0000000000000231
20
19.999999999999993
10
-3.0000000000000231
20
9.9999999999999911
10
-6.0000000000000426
20
9.9999999999999822
10
-6.0000000000000426
20
-1.7763568394002505e-14
10
-3.0000000000000231
20
-8.8817841970012523e-15
10
-3.0000000000000071
20
-3.0000000000000249
10
9.9999999999999645
20
-3.0000000000000249
10
9.9999999999999645
20
-6.0000000000000142
10
59.999999999999964
20
-6.0000000000000142
10
59.999999999999964
20
-1.7763568394002505e-14
10
109.99999999999997
20
-1.7763568394002505e-14
10
109.99999999999997
20
-6.0000000000000142
10
209.99999999999997
20
-6.0000000000000142
10
209.99999999999997
20
-1.7763568394002505e-14
10
259.99999999999994
20
-1.7763568394002505e-14
10
259.99999999999994
20
-6.0000000000000142
10
309.99999999999994
20
-6.0000000000000142
10
310
20
-3.0000000000000249
10
323
20
-3.0000000000000249
10
322.99999999999989
20
-1.7763568394002505e-14
10
325.99999999999994
20
-1.7763568394002505e-14
10
326
20
9.9999999999999822
10
323
20
9.9999999999999911
10
322.99999999999989
20
19.999999999999993
10
325.99999999999994
20
19.999999999999982
10
326
20
29.999999999999982
10
323
20
29.999999999999993
10
322.99999999999989
20
39.999999999999993
10
325.99999999999994
20
39.999999999999986
10
326
20
49.999999999999986
10
323
20
49.999999999999993
10
322.99999999999989
20
59.999999999999993
10
325.99999999999994
20
59.999999999999986
10
326
20
69.999999999999986
10
323
20
70
10
323
20
82.999999999999986
10
309.99999999999994
20
82.999999999999972
10
309.99999999999994
20
85.999999999999972
0
ENDSEC
0
SECTION
2
OBJECTS
0
DICTIONARY
5
C
100
AcDbDictionary
3
ACAD_GROUP
350
D
3
ACAD_MLINESTYLE
350
17
0
DICTIONARY
5
D
100
AcDbDictionary
0
DICTIONARY
5
1A
330
C
100
AcDbDictionary
0
DICTIONARY
5
17
100
AcDbDictionary
0
ENDSEC
0
EOF
